<svg width="266" height="80" viewBox="0 0 266 80" fill="none" xmlns="http://www.w3.org/2000/svg">
<path d="M120.055 10.9991C119.98 7.09756 116.675 3.77674 116.675 3.77674C116.675 3.77674 116.472 2.72367 116.21 2.42356C115.948 2.12344 115.223 2.52123 115.223 2.52123L113.645 1.58714C113.645 1.58714 113.113 -0.859968 112.337 -1.01979C111.56 -1.17962 110.054 0.411532 110.054 0.411532L108.285 0.246379C108.285 0.246379 107.54 -0.783607 107.128 -0.785383C106.716 -0.787159 106.021 0.400877 106.021 0.400877L104.283 0.812871C104.283 0.812871 102.94 -0.314786 102.624 0.134501C102.307 0.583788 101.787 1.91034 101.787 1.91034L100.429 2.82667C100.429 2.82667 99.5891 2.59226 99.3344 2.90836C99.078 3.22446 99.1823 3.94722 99.1823 3.94722C99.1823 3.94722 95.8397 7.29645 95.9565 12.4535C94.5841 13.9345 94.4727 14.7283 96.4941 15.3694C97.1343 17.4898 97.6967 17.9266 97.6967 17.9266C97.6967 17.9266 97.1679 19.6296 97.5057 20.0754C97.8417 20.5211 99.5342 20.1642 99.5342 20.1642C99.5342 20.1642 101.172 21.5777 102.23 22.0981C102.23 22.0981 102.155 23.0552 102.686 23.4939C103.643 23.2914 104.449 23.0037 104.449 23.0037C104.449 23.0037 106.304 23.334 107.431 23.5081C108.287 24.3321 108.54 24.3321 108.54 24.3321C108.54 24.3321 109.5 23.7887 109.649 23.4157C111.46 23.0428 112.618 22.645 112.618 22.645C112.618 22.645 113.723 23.9361 114.254 23.6661C114.501 22.9007 114.395 21.7003 114.395 21.7003L116.166 20.4678C116.166 20.4678 117.45 20.7182 117.692 20.2459C117.932 19.7735 117.642 18.9069 117.642 18.9069L118.536 17.5999C118.536 17.5999 120.92 17.5359 121.248 16.7191C121.577 15.9022 119.975 13.9843 119.975 13.9843L120.035 13.0271C120.035 13.0271 120.893 12.5742 121.024 12.125C121.146 11.6774 120.055 10.9991 120.055 10.9991Z" fill="url(#paint0_linear_3346_9238)"/>
<path opacity="0.4" d="M106.977 8.50702C106.915 9.05398 107.15 9.53168 107.502 9.57253C107.854 9.61337 108.19 9.20138 108.252 8.65442C108.314 8.10746 108.079 7.62976 107.727 7.58892C107.375 7.54807 107.039 7.95829 106.977 8.50702Z" fill="#22D3A9"/>
<path d="M106.989 8.38776C106.934 8.87078 107.126 9.29166 107.422 9.32362C107.715 9.35736 107.998 8.99154 108.053 8.50851C108.108 8.02548 107.915 7.60461 107.622 7.57265C107.326 7.5389 107.043 7.90473 106.989 8.38776Z" fill="black"/>
<path opacity="0.4" d="M114.913 7.77847C115.098 8.28458 115.452 8.61844 115.702 8.5261C115.951 8.43375 116.002 7.94895 115.815 7.44283C115.629 6.93672 115.275 6.60286 115.026 6.69521C114.777 6.78933 114.725 7.27236 114.913 7.77847Z" fill="#22D3A9"/>
<path d="M114.88 7.69071C115.048 8.1471 115.347 8.45787 115.545 8.38328C115.745 8.3087 115.77 7.87895 115.602 7.42256C115.434 6.96617 115.135 6.65539 114.937 6.72998C114.737 6.80456 114.712 7.23432 114.88 7.69071Z" fill="black"/>
<path d="M107.637 7.73243C107.906 7.82122 107.476 8.51202 107.262 8.38416C107.046 8.2563 107.292 7.61877 107.637 7.73243Z" fill="#E8E7E6"/>
<path d="M111.146 10.2082C114.366 9.85655 117.438 10.233 120.067 11.1671C120.213 11.2204 120.029 13.0335 120.029 13.0335L119.969 13.9907C119.969 13.9907 121.572 15.9086 121.243 16.7255C120.914 17.5424 118.53 17.6063 118.53 17.6063L117.637 18.9133L116.162 20.4725L114.391 21.7049C114.391 21.7049 114.497 22.9054 114.25 23.6708C113.719 23.9389 112.614 22.6497 112.614 22.6497C112.614 22.6497 111.455 23.0475 109.644 23.4204C109.05 23.5447 108 23.5678 107.428 23.5127C106.302 23.3387 104.447 23.0084 104.447 23.0084C104.447 23.0084 103.638 23.2961 102.683 23.4985C102.151 23.0617 102.227 22.1027 102.227 22.1027C101.168 21.5842 99.5319 20.1688 99.5319 20.1688C99.5319 20.1688 97.8394 20.5258 97.5034 20.08C97.2859 19.7906 97.4291 18.979 97.5582 18.4392C99.6274 14.2304 104.8 10.9007 111.146 10.2082Z" fill="url(#paint1_linear_3346_9238)"/>
<path opacity="0.3" d="M97.6903 17.9264C97.6903 17.9264 97.1279 17.4896 96.4877 15.3692C94.468 14.7282 94.5794 13.9344 95.9501 12.4533C95.8793 9.31185 97.0926 6.84343 98.0511 5.3908C97.8247 6.34265 97.616 8.8448 99.0999 14.4227C101.143 22.105 114.944 21.4071 118.527 17.6015L117.634 18.9085C117.634 18.9085 117.926 19.7751 117.684 20.2475C117.443 20.7198 116.157 20.4694 116.157 20.4694L114.387 21.7019C114.387 21.7019 114.493 22.9023 114.246 23.6677C113.715 23.9359 112.61 22.6466 112.61 22.6466C112.61 22.6466 111.451 23.0444 109.64 23.4173C109.492 23.7903 108.532 24.3337 108.532 24.3337C108.532 24.3337 108.28 24.3337 107.423 23.5097C106.296 23.3356 104.441 23.0053 104.441 23.0053C104.441 23.0053 103.633 23.293 102.678 23.4955C102.145 23.0586 102.221 22.0997 102.221 22.0997C101.162 21.5811 99.5261 20.1658 99.5261 20.1658C99.5261 20.1658 97.8336 20.5227 97.4976 20.077C97.1615 19.6295 97.6903 17.9264 97.6903 17.9264Z" fill="#22D3A9"/>
<path d="M100.961 7.46832C96.6687 2.979 94.9762 2.95769 94.7922 3.95039C94.7922 3.95039 93.5313 10.1942 97.8766 11.0981C99.8008 10.4855 100.659 9.20509 100.659 9.20509C100.659 9.20509 100.42 7.80751 100.961 7.46832Z" fill="url(#paint2_linear_3346_9238)"/>
<path d="M117.506 4.70045C117.506 4.70045 119.249 1.044 119.637 0.841556C120.024 0.640887 122.433 6.2259 120.521 8.27521C120.312 8.49897 120.006 8.60729 119.628 8.61972C119.63 8.61972 119.083 6.58284 117.506 4.70045Z" fill="url(#paint3_linear_3346_9238)"/>
<path d="M94.7917 3.95002C94.9296 3.20417 95.92 3.03191 98.2244 4.89477C97.5223 4.77401 96.9422 4.98356 96.5867 5.44883C97.3649 5.94073 99.4571 7.22644 100.861 7.73255C100.784 7.84443 100.803 7.92257 100.723 8.04865C99.3386 7.7876 96.9741 7.2957 96.2101 6.84641C96.2101 6.84996 96.2101 6.85351 96.2101 6.85707C96.2313 7.40757 96.3409 7.95808 96.5266 8.46242C97.3225 8.5814 98.4809 8.67907 99.802 8.56187C99.802 8.56187 98.3659 9.258 97.0731 9.49418C97.5365 10.1246 98.1731 10.5615 98.9672 10.6289C98.6506 10.803 98.2899 10.9646 97.8778 11.096C93.5307 10.1939 94.7917 3.95002 94.7917 3.95002Z" fill="url(#paint4_linear_3346_9238)"/>
<path d="M108.199 17.5254C109.803 17.0956 111.957 19.2515 109.467 19.5108C106.977 19.7683 105.785 18.1736 108.199 17.5254Z" fill="#C2E1FE"/>
<path d="M118.013 5.35929C118.013 5.35929 118.742 4.56726 119.258 3.48045C118.949 3.09154 118.615 2.92106 118.353 3.09687L118.369 2.96013C118.868 1.98697 119.437 0.946331 119.639 0.841556C120.026 0.640887 122.435 6.2259 120.523 8.27521C120.314 8.49897 120.008 8.60729 119.63 8.61972C119.892 8.14558 120.044 7.63769 120.114 7.1298C119.607 7.22924 119.016 7.13335 119.016 7.13335L118.73 6.50115C118.73 6.50115 119.575 6.30936 120.132 5.89737C120.084 5.42499 119.98 4.97748 119.839 4.58147C119.423 5.33442 118.777 5.81568 118.454 6.02523C118.33 6.10336 118.013 5.35929 118.013 5.35929Z" fill="url(#paint5_linear_3346_9238)"/>
<path opacity="0.4" d="M100.762 9.35269C99.9606 12.0289 98.1443 13.0944 97.2016 12.6682C96.259 12.242 95.9513 11.1996 95.9513 11.1996C95.9513 11.1996 96.0892 10.5052 96.0538 10.2743C95.0918 9.40064 94.8106 7.75799 94.8106 7.75799C94.8106 7.75799 97.3431 10.9651 100.617 8.77377C100.716 8.91761 100.762 9.35269 100.762 9.35269Z" fill="#22D3A9"/>
<path opacity="0.3" d="M121.24 16.7268C120.367 17.2595 119.058 16.3361 119.058 16.3361L118.527 17.6076C118.527 17.6076 120.77 17.7213 121.24 16.7268Z" fill="#22D3A9"/>
<path d="M111.559 17.459C111.435 17.8302 109.799 17.0311 110.413 16.5764C111.026 16.1218 111.881 16.4894 111.559 17.459Z" fill="#C2E1FE"/>
<path opacity="0.5" d="M112.146 3.51255C113.292 3.57648 113.757 5.20848 112.596 5.20493C111.432 5.1996 110.24 3.406 112.146 3.51255Z" fill="#2696C6"/>
<path d="M109.686 2.75862C110.203 2.41588 110.751 3.5684 110.304 3.82235C109.86 4.07629 109.17 3.10136 109.686 2.75862Z" fill="#2696C6"/>
<path d="M103.771 2.43012C104.581 2.28983 105.516 4.02305 104.289 4.16511C103.063 4.3054 102.71 2.61303 103.771 2.43012Z" fill="#2696C6"/>
<path d="M101.73 1.94549C102.651 2.95061 102.754 4.26296 102.017 4.99105C101.341 5.65699 99.5176 5.41725 98.3503 4.91291C99.063 4.10668 100.552 2.52441 101.73 1.94549Z" fill="#2696C6"/>
<path d="M114.937 6.90244C114.748 7.01432 115.185 7.47959 115.326 7.3464C115.467 7.21321 115.177 6.76037 114.937 6.90244Z" fill="#E8E7E6"/>
<path opacity="0.3" d="M112.336 -1.01545C111.613 -0.25184 111.683 0.920212 111.683 0.920212C111.683 0.920212 110.49 0.515321 110.051 0.415874C110.799 -0.78104 112.336 -1.01545 112.336 -1.01545Z" fill="#22D3A9"/>
<path d="M104.273 17.6336C104.636 17.7561 104.344 18.5375 104.096 18.502C103.849 18.4682 103.955 17.527 104.273 17.6336Z" fill="white"/>
<path opacity="0.3" d="M116.922 14.382C116.14 14.382 115.728 14.0606 115.466 14.4868C115.466 14.4868 115.946 15.5949 116.706 15.2398C116.895 14.9911 116.922 14.382 116.922 14.382Z" fill="#22D3A9"/>
<path opacity="0.3" d="M105.242 18.1337C105.702 18.1994 105.229 19.1051 104.923 19.1761C104.617 19.2471 103.804 18.7499 103.804 18.7499C103.804 18.7499 105.077 18.1088 105.242 18.1337Z" fill="#22D3A9"/>
<path opacity="0.4" d="M110.602 8.98448C111.007 8.29545 111.099 7.40043 109.895 7.12517C109.895 7.12517 110.76 7.38977 110.602 8.98448Z" fill="#22D3A9"/>
<path d="M100.164 2.77785C100.021 2.769 99.8829 2.76016 99.7485 2.75309C99.8917 2.74425 100.04 2.75839 100.164 2.77785Z" fill="url(#paint6_linear_3346_9238)"/>
<path d="M117.637 18.991C117.66 18.991 117.683 18.9803 117.699 18.9608C118.019 18.5541 118.315 18.1226 118.577 17.6804C119.056 17.6449 120.943 17.4709 121.206 16.8742C121.489 16.2349 120.706 14.8995 119.988 13.8801C120.106 13.2124 120.166 12.5412 120.166 11.8859C120.166 7.54217 117.694 3.5785 113.713 1.53629C113.418 0.390875 112.891 -0.972969 112.353 -1.09373C111.863 -1.20383 111.08 -0.726127 110.026 0.330496C108.07 0.0161729 106.131 0.160016 104.294 0.73006C103.498 0.177774 102.813 -0.28572 102.44 0.199084C102.256 0.438822 102.014 0.998211 101.719 1.86127C100.35 2.66217 99.1756 3.69571 98.2276 4.93347C98.2011 4.96898 98.2082 5.01871 98.2418 5.04534C98.2771 5.07198 98.3249 5.06488 98.3514 5.03114C99.2923 3.80226 100.461 2.7776 101.823 1.9838C101.839 1.97492 101.851 1.95894 101.858 1.94118C102.147 1.08878 102.391 0.520511 102.564 0.296755C102.833 -0.0513089 103.374 0.2861 104.235 0.882782C104.255 0.896988 104.28 0.90054 104.304 0.893437C106.142 0.316289 108.084 0.170671 110.042 0.492097C110.066 0.497425 110.091 0.488546 110.109 0.470787C111.124 -0.548543 111.886 -1.03867 112.319 -0.939228C112.739 -0.845108 113.266 0.413961 113.57 1.6091C113.575 1.63041 113.591 1.64994 113.61 1.6606C117.558 3.67085 120.009 7.58834 120.009 11.8859C120.009 12.5429 119.947 13.216 119.827 13.8855C119.823 13.9068 119.829 13.9281 119.841 13.9458C120.828 15.3434 121.263 16.3628 121.063 16.812C120.915 17.1459 119.894 17.4336 118.525 17.5277C118.499 17.5295 118.476 17.5437 118.463 17.5668C118.2 18.0161 117.901 18.4529 117.577 18.8667C117.551 18.9004 117.556 18.9502 117.59 18.9786C117.602 18.9857 117.62 18.991 117.637 18.991Z" fill="black"/>
<path d="M98.433 19.048C98.4507 19.048 98.4683 19.0426 98.4825 19.0302C98.5161 19.0036 98.5214 18.9538 98.4949 18.9183C97.6336 17.8386 96.9845 16.6364 96.5636 15.3436C96.5565 15.3205 96.5371 15.3009 96.5141 15.2938C95.6051 14.9831 95.071 14.6421 94.9666 14.31C94.8764 14.017 95.2761 13.3262 96.0101 12.5058C96.0242 12.4898 96.0313 12.4703 96.0295 12.449C96.0189 12.2483 96.0154 12.0636 96.0154 11.8825C96.0154 11.3462 96.0543 10.8063 96.1303 10.2789C96.1374 10.2363 96.1073 10.1954 96.0631 10.1883C96.0189 10.183 95.98 10.2114 95.9747 10.2558C95.8969 10.7921 95.858 11.3391 95.858 11.8825C95.858 12.0565 95.8633 12.2341 95.8721 12.4241C95.4035 12.9497 94.6677 13.8767 94.8181 14.3562C94.9366 14.7398 95.4777 15.1003 96.4274 15.4306C96.8537 16.7269 97.508 17.9345 98.3728 19.0178C98.387 19.0391 98.41 19.048 98.433 19.048Z" fill="black"/>
<path d="M113.998 23.75C114.031 23.75 114.062 23.7447 114.088 23.734C114.382 23.6115 114.521 22.974 114.514 21.7877C115.383 21.2567 116.18 20.6192 116.886 19.8929C116.916 19.8609 116.916 19.8112 116.884 19.781C116.852 19.7508 116.803 19.7508 116.773 19.7828C116.067 20.5091 115.268 21.1466 114.394 21.6758C114.371 21.69 114.355 21.7167 114.355 21.7451C114.369 23.2794 114.129 23.5458 114.026 23.5884C113.895 23.6435 113.427 23.3558 112.668 22.5957C112.645 22.5726 112.611 22.5655 112.583 22.578C111.129 23.1569 109.591 23.4499 108.011 23.4499C106.807 23.4499 105.615 23.2759 104.465 22.9349C104.448 22.9296 104.43 22.9314 104.414 22.9367C103.947 23.1231 102.976 23.5103 102.702 23.425C102.669 23.4144 102.493 23.3025 102.301 22.0932C102.297 22.0683 102.281 22.047 102.26 22.0363C101.098 21.4237 100.055 20.6334 99.158 19.6887C99.1279 19.6567 99.0784 19.6567 99.0465 19.6851C99.0147 19.7153 99.0147 19.765 99.0448 19.797C99.9432 20.7435 100.99 21.5373 102.154 22.1571C102.371 23.4872 102.58 23.5529 102.658 23.576C102.927 23.6594 103.567 23.4446 104.449 23.0947C105.604 23.4357 106.803 23.6079 108.013 23.6079C109.596 23.6079 111.136 23.3167 112.594 22.7449C113.266 23.4126 113.736 23.75 113.998 23.75Z" fill="black"/>
<path d="M98.1375 20.3325C98.3603 20.3325 98.6292 20.313 98.9369 20.2899C99.1208 20.2757 99.3207 20.2615 99.5311 20.249C99.5753 20.2473 99.6072 20.2082 99.6054 20.1656C99.6036 20.1212 99.5718 20.0892 99.5223 20.091C99.3101 20.1034 99.1102 20.1176 98.9263 20.1318C98.2454 20.1833 97.7077 20.2224 97.561 20.0324C97.4283 19.8601 97.6016 18.7094 97.7679 17.9476C97.7767 17.9049 97.7502 17.8623 97.7077 17.8534C97.6635 17.8446 97.6229 17.8712 97.614 17.9138C97.545 18.2317 97.2126 19.8335 97.4372 20.1283C97.5557 20.2846 97.7944 20.3325 98.1375 20.3325Z" fill="black"/>
<path d="M120.028 13.1126C120.044 13.1126 120.062 13.1073 120.076 13.0966C120.191 13.0096 120.304 12.9315 120.41 12.8569C120.766 12.61 121.045 12.4147 121.095 12.1448C121.156 11.8002 120.281 11.0793 120.104 10.939C120.071 10.9123 120.021 10.9177 119.993 10.9514C119.966 10.9851 119.972 11.0349 120.005 11.0633C120.414 11.3883 120.972 11.9317 120.939 12.1163C120.902 12.3223 120.645 12.5017 120.32 12.7272C120.212 12.8018 120.097 12.8817 119.98 12.9705C119.945 12.9972 119.938 13.0469 119.964 13.0806C119.98 13.1002 120.005 13.1126 120.028 13.1126Z" fill="black"/>
<path d="M116.632 20.5651C116.927 20.5651 117.284 20.542 117.488 20.4462C117.794 20.3023 117.78 20.1141 117.748 19.663C117.734 19.4694 117.718 19.2297 117.714 18.9065C117.714 18.8621 117.682 18.8266 117.635 18.8284C117.59 18.8284 117.557 18.8639 117.557 18.9083C117.56 19.235 117.578 19.4783 117.59 19.6737C117.624 20.1443 117.62 20.2082 117.421 20.3023C117.081 20.4639 116.175 20.3893 116.167 20.3875C116.121 20.3822 116.085 20.416 116.082 20.4604C116.078 20.5048 116.11 20.542 116.154 20.5456C116.17 20.5474 116.377 20.5651 116.632 20.5651Z" fill="black"/>
<path d="M99.1791 4.02506C99.2215 4.02506 99.2569 3.99132 99.2586 3.9487C99.2693 3.52605 99.3241 3.02881 99.386 2.96488C99.5045 2.85478 99.844 2.83525 100.419 2.90273C100.461 2.90628 100.502 2.87609 100.507 2.83347C100.513 2.79085 100.481 2.75001 100.438 2.74468C99.7874 2.66654 99.4426 2.69851 99.2799 2.8459C99.1419 2.97376 99.1101 3.65391 99.1012 3.94159C99.0995 3.98599 99.1348 4.02151 99.1773 4.02328C99.1773 4.02506 99.1773 4.02506 99.1791 4.02506Z" fill="black"/>
<path d="M101.018 9.84801C101.032 9.84801 101.048 9.84445 101.06 9.83558C101.099 9.81249 101.111 9.76099 101.087 9.72192C100.733 9.14655 100.644 8.47351 100.846 7.92478C100.979 7.56606 101.226 7.30323 101.527 7.20734C101.569 7.19313 101.594 7.14696 101.58 7.10434C101.566 7.06172 101.52 7.03686 101.477 7.05106C101.129 7.16294 100.843 7.46128 100.692 7.86972C100.473 8.46641 100.568 9.19272 100.947 9.81071C100.965 9.8338 100.991 9.84801 101.018 9.84801Z" fill="black"/>
<path d="M97.809 11.1733C98.6951 11.1733 99.6996 10.4967 100.8 9.15598C100.828 9.12046 100.824 9.06896 100.789 9.04055C100.754 9.01213 100.702 9.01569 100.674 9.0512C99.452 10.5394 98.3696 11.184 97.4571 10.9673C96.4366 10.724 95.6726 9.96221 95.1845 8.70669C94.4081 6.70355 94.6415 4.2671 94.944 3.81603C95.0236 3.69883 95.158 3.63312 95.3472 3.62069C96.3164 3.55854 98.5341 4.89929 100.899 7.58436C100.929 7.6181 100.98 7.62165 101.015 7.59146C101.049 7.56128 101.053 7.50978 101.022 7.47426C98.5094 4.62226 96.3146 3.39338 95.3366 3.45554C95.0943 3.47152 94.9157 3.56209 94.8078 3.72191C94.4417 4.26532 94.2808 6.82785 95.0306 8.76352C95.5311 10.0546 96.357 10.8714 97.4182 11.1254C97.5455 11.1591 97.6764 11.1733 97.809 11.1733Z" fill="black"/>
<path d="M119.605 8.685C119.609 8.685 119.612 8.685 119.614 8.685C120.587 8.57134 121.142 7.99597 121.266 6.97131C121.618 4.06782 120.171 0.972533 119.734 0.759433C119.678 0.731019 119.621 0.738123 119.582 0.777191C119.379 0.981412 118.592 2.46068 117.661 4.22764L117.437 4.65384C117.416 4.69291 117.431 4.74086 117.469 4.76039C117.508 4.77993 117.555 4.76572 117.575 4.72843L117.799 4.30223C118.457 3.05381 119.442 1.18386 119.678 0.906827C120.017 1.08796 121.457 4.08735 121.11 6.95178C120.997 7.89297 120.488 8.42217 119.596 8.52695C119.554 8.53227 119.522 8.57134 119.527 8.61396C119.532 8.65481 119.566 8.685 119.605 8.685Z" fill="black"/>
<path d="M110.604 8.11678C110.625 8.11678 110.646 8.1079 110.662 8.09014C111.21 7.4828 112.02 7.36915 112.724 7.80423C112.761 7.82731 112.811 7.81488 112.832 7.77759C112.855 7.7403 112.843 7.69235 112.806 7.66926C112.172 7.28036 111.228 7.22531 110.544 7.98536C110.514 8.01733 110.517 8.06705 110.549 8.09724C110.567 8.10967 110.584 8.11678 110.604 8.11678Z" fill="black"/>
<path d="M113.023 8.68967C113.033 8.68967 113.046 8.68789 113.056 8.68257C113.095 8.66303 113.113 8.61686 113.093 8.57779C113.088 8.56891 112.65 7.62594 113.09 6.9014C113.113 6.86411 113.101 6.81616 113.063 6.79307C113.026 6.76999 112.979 6.78242 112.956 6.81971C112.469 7.61706 112.933 8.60443 112.952 8.64705C112.964 8.67191 112.993 8.68967 113.023 8.68967Z" fill="black"/>
<path d="M110.604 9.06184C110.639 9.06184 110.671 9.03876 110.68 9.00324C110.683 8.99081 111.007 7.70688 109.937 7.0587C109.9 7.03561 109.852 7.04804 109.829 7.08534C109.806 7.12263 109.819 7.17058 109.856 7.19366C110.823 7.77969 110.54 8.91445 110.526 8.9624C110.515 9.00502 110.54 9.04764 110.583 9.05829C110.59 9.06007 110.597 9.06184 110.604 9.06184Z" fill="black"/>
<path d="M104.145 18.8949C104.397 18.8949 104.771 18.8079 105.347 18.5913C105.388 18.5753 105.409 18.5309 105.393 18.4901C105.377 18.4492 105.333 18.4279 105.292 18.4439C104.199 18.8559 103.932 18.7635 103.807 18.6019C103.72 18.4901 103.823 17.8117 103.968 17.247C103.978 17.2043 103.954 17.1617 103.911 17.1511C103.869 17.1404 103.826 17.1653 103.816 17.2079C103.763 17.4157 103.503 18.4687 103.683 18.6996C103.773 18.8168 103.904 18.8949 104.145 18.8949Z" fill="black"/>
<path d="M116.478 14.8827C116.495 14.8827 116.511 14.8827 116.529 14.8809C116.635 14.872 116.722 14.8294 116.787 14.7513C116.953 14.5524 116.953 14.1759 116.9 13.6343C116.897 13.5899 116.858 13.5579 116.814 13.5633C116.769 13.5668 116.739 13.6059 116.743 13.6503C116.784 14.0729 116.803 14.4867 116.665 14.6501C116.628 14.6962 116.58 14.7193 116.515 14.7247C116.17 14.7495 115.507 14.421 115.5 14.4174C115.461 14.3979 115.413 14.4139 115.393 14.4529C115.374 14.492 115.39 14.54 115.429 14.5595C115.459 14.5702 116.083 14.8827 116.478 14.8827Z" fill="black"/>
<path d="M108.539 24.4186C108.835 24.4186 109.081 24.1522 109.691 23.4898L109.703 23.4774C109.733 23.4454 109.731 23.3957 109.7 23.3655C109.668 23.3353 109.618 23.3371 109.588 23.3691L109.576 23.3815C108.992 24.0155 108.75 24.2765 108.513 24.2587C108.331 24.2445 107.786 23.7597 107.485 23.4578C107.455 23.4277 107.404 23.4277 107.374 23.4578C107.344 23.488 107.344 23.5395 107.374 23.5697C107.51 23.7065 108.209 24.3937 108.501 24.4168C108.513 24.4186 108.525 24.4186 108.539 24.4186Z" fill="black"/>
<path d="M158.363 60.8806L158.288 61.0075L158.282 61.0041L158.363 60.8806ZM159.512 61.6661L159.628 61.7565L159.538 61.8722L159.422 61.783L159.512 61.6661ZM158.094 60.7125L158.019 60.8388L158.094 60.7125ZM156.086 60.3034L156.182 60.4152L156.172 60.4244L156.159 60.4314L156.086 60.3034ZM155.891 60.4834L155.769 60.4011L155.769 60.401L155.891 60.4834ZM156.124 65.7448L155.987 65.7981L155.987 65.798L156.124 65.7448ZM157.102 67.3341L157.208 67.2314L157.258 67.2832L157.248 67.3547L157.102 67.3341ZM157.001 69.5527L157.148 69.5458L157.151 69.6058L157.111 69.6507L157.001 69.5527ZM155.901 71.569L156.042 71.5249L156.042 71.5255L155.901 71.569ZM157.581 72.6902L157.629 72.5511L157.698 72.575L157.721 72.6442L157.581 72.6902ZM158.813 75.3101L158.938 75.2318L158.969 75.2824L158.957 75.341L158.813 75.3101ZM158.636 77.5867L158.753 77.4974L158.753 77.4977L158.636 77.5867ZM160.201 77.7554L160.212 77.9022L160.212 77.9023L160.201 77.7554ZM160.786 77.7148L160.778 77.5678L160.841 77.5639L160.888 77.6078L160.786 77.7148ZM163.556 79.7031L163.625 79.5731L163.689 79.6073L163.701 79.6793L163.556 79.7031ZM164.082 81.1838L164.124 81.0426L164.125 81.0431L164.082 81.1838ZM165.951 80.6816L165.897 80.5446L165.944 80.5259L165.993 80.5403L165.951 80.6816ZM169.033 81.2019L169.04 81.0547L169.096 81.0574L169.136 81.0973L169.033 81.2019ZM170.18 82.0571L170.191 81.91L170.201 81.9113L170.18 82.0571ZM171.41 81.1029L171.301 81.0031L171.337 80.9639L171.39 80.9569L171.41 81.1029ZM174.45 80.3165L174.397 80.1794L174.486 80.1443L174.554 80.212L174.45 80.3165ZM176.01 81.3488L176.067 81.4847L176.065 81.4854L176.01 81.3488ZM176.05 81.3284L175.974 81.2022L176.002 81.1852L176.035 81.1818L176.05 81.3284ZM176.176 81.2923L176.316 81.3375L176.298 81.396L176.243 81.4238L176.176 81.2923ZM176.178 81.2873L176.038 81.2421L176.057 81.1833L176.112 81.1556L176.178 81.2873ZM176.179 81.2865L176.32 81.3317L176.301 81.3904L176.245 81.4181L176.179 81.2865ZM176.181 81.283L176.04 81.2378L176.059 81.1791L176.114 81.1514L176.181 81.283ZM176.183 81.2815L176.324 81.3269L176.305 81.3854L176.25 81.4131L176.183 81.2815ZM176.232 81.1102L176.089 81.0751L176.093 81.0593L176.1 81.0447L176.232 81.1102ZM176.455 79.3176L176.308 79.3185L176.307 79.2353L176.378 79.1919L176.455 79.3176ZM178.196 78.0368L178.099 77.926L178.146 77.885L178.208 77.89L178.196 78.0368ZM179.56 77.9306L179.497 77.7973L179.497 77.7972L179.56 77.9306ZM179.847 77.4814L179.7 77.4772L179.7 77.4654L179.702 77.4538L179.847 77.4814ZM179.803 76.6326L179.659 76.6635L179.657 76.651L179.656 76.6381L179.803 76.6326ZM179.796 76.3516L179.649 76.3535L179.648 76.3016L179.68 76.2607L179.796 76.3516ZM180.694 75.0383L180.567 74.9633L180.606 74.8971L180.683 74.8914L180.694 75.0383ZM181.97 74.874L181.943 74.7293L181.945 74.7288L181.97 74.874ZM182.396 74.779L182.356 74.6372L182.358 74.6364L182.396 74.779ZM183.438 74.1969L183.303 74.1374L183.303 74.1373L183.438 74.1969ZM183.49 74.0135L183.344 73.9919L183.346 73.9772L183.351 73.9633L183.49 74.0135ZM182.864 72.1527L182.74 72.2325L182.736 72.2263L182.864 72.1527ZM182.167 71.0724L182.046 71.1572L182.011 71.1071L182.021 71.0466L182.167 71.0724ZM182.286 70.2343L182.139 70.2186L182.146 70.1547L182.197 70.1163L182.286 70.2343ZM182.556 70.0401L182.641 70.1607L182.641 70.1608L182.556 70.0401ZM182.609 70.0035L182.524 69.8829L182.525 69.8825L182.609 70.0035ZM183.323 69.2604L183.468 69.2864L183.468 69.287L183.323 69.2604ZM182.313 68.0212L182.221 68.136L182.172 68.0963L182.167 68.0332L182.313 68.0212ZM181.869 65.6364L181.728 65.6781L181.68 65.5158L181.847 65.4907L181.869 65.6364ZM183.502 63.8602L183.355 63.8425L183.355 63.8424L183.502 63.8602ZM181.903 57.3775L181.839 57.5099L181.837 57.5092L181.903 57.3775ZM181.745 57.3961L181.849 57.5L181.745 57.3961ZM179.74 60.9969L179.871 61.0655L179.871 61.0656L179.74 60.9969ZM179.562 61.3343L179.693 61.403L179.59 61.5976L179.449 61.4286L179.562 61.3343ZM178.68 60.3824L178.577 60.488L178.546 60.4572L178.536 60.414L178.68 60.3824ZM178.225 59.113L178.114 59.2098L178.114 59.2098L178.225 59.113ZM177.25 59.1865L177.315 59.3188L177.236 59.3576L177.164 59.3062L177.25 59.1865ZM175.618 58.1905L175.551 58.3216L175.492 58.2914L175.476 58.2273L175.618 58.1905ZM174.199 55.4458L174.167 55.5896L174.167 55.5896L174.199 55.4458ZM172.446 56.2994L172.543 56.4111L172.538 56.4145L172.446 56.2994ZM172.192 56.526L172.296 56.6304L172.292 56.6344L172.192 56.526ZM171.77 56.9321L171.874 57.0362L171.821 57.0895L171.747 57.0776L171.77 56.9321ZM169.897 56.7642L169.894 56.9115L169.823 56.9102L169.78 56.8535L169.897 56.7642ZM168.747 55.7642L168.748 55.6169L168.747 55.7642ZM167.643 56.9182L167.768 56.9957L167.732 57.0533L167.666 57.0638L167.643 56.9182ZM165.788 57.3491L165.832 57.4898L165.763 57.5111L165.704 57.4701L165.788 57.3491ZM163.854 56.795L163.737 56.7053L163.737 56.7051L163.854 56.795ZM163.101 58.5296L163.24 58.5773L163.223 58.6291L163.175 58.6568L163.101 58.5296ZM161.731 59.4532L161.821 59.5698L161.774 59.6064L161.714 59.5995L161.731 59.4532ZM160.556 59.5629L160.456 59.4548L160.458 59.4537L160.556 59.5629ZM160.371 60.6728L160.518 60.6778L160.516 60.7343L160.477 60.775L160.371 60.6728ZM179.884 61.0747L180.014 61.1434L180.014 61.1434L179.884 61.0747ZM179.675 61.4715L179.561 61.5642L179.499 61.4887L179.545 61.4028L179.675 61.4715ZM179.892 61.0589L179.762 60.9902L179.762 60.9902L179.892 61.0589ZM180.582 59.7555L180.452 59.6862L180.481 59.6309L180.542 59.6138L180.582 59.7555ZM181.406 60.2125L181.521 60.1208L181.578 60.1927L181.539 60.2758L181.406 60.2125ZM180.16 62.1129L180.271 62.2095L180.148 62.3513L180.04 62.1978L180.16 62.1129ZM180.628 62.8276L180.502 62.9038L180.429 62.7836L180.546 62.7052L180.628 62.8276ZM182.011 61.3616L181.882 61.2904L182.04 61.0045L182.15 61.312L182.011 61.3616ZM180.925 63.3473L180.962 63.4899L180.85 63.5189L180.796 63.4173L180.925 63.3473ZM182.318 62.7348L182.464 62.72L182.473 62.8034L182.405 62.8532L182.318 62.7348ZM158.438 60.7539C158.799 60.9678 159.189 61.2323 159.601 61.5493L159.422 61.783C159.017 61.4722 158.637 61.2145 158.288 61.0074L158.438 60.7539ZM158.17 60.5862C158.258 60.6392 158.349 60.6961 158.443 60.7572L158.282 61.0041C158.191 60.9449 158.104 60.8899 158.019 60.8388L158.17 60.5862ZM155.991 60.1916C156.19 60.0205 156.477 59.9643 156.834 60.0247C157.19 60.085 157.632 60.2635 158.17 60.5862L158.019 60.8388C157.497 60.5259 157.09 60.3669 156.785 60.3152C156.48 60.2635 156.293 60.3206 156.182 60.4152L155.991 60.1916ZM155.769 60.401C155.833 60.3073 155.915 60.2316 156.014 60.1754L156.159 60.4314C156.099 60.4655 156.051 60.5103 156.014 60.5659L155.769 60.401ZM155.987 65.798C155.587 64.7666 155.432 63.5742 155.424 62.5705C155.42 62.0679 155.452 61.6091 155.511 61.2377C155.569 60.8737 155.654 60.5719 155.769 60.4011L156.014 60.5658C155.938 60.6786 155.859 60.9237 155.802 61.2837C155.746 61.6364 155.714 62.0787 155.718 62.5681C155.726 63.5482 155.878 64.703 156.261 65.6916L155.987 65.798ZM156.996 67.4368C156.583 67.0115 156.243 66.4604 155.987 65.7981L156.261 65.6916C156.507 66.3242 156.826 66.8395 157.208 67.2314L156.996 67.4368ZM156.839 68.9874C156.839 68.4285 156.878 67.866 156.956 67.3135L157.248 67.3547C157.172 67.8933 157.134 68.4421 157.134 68.9874H156.839ZM156.854 69.5595C156.845 69.3597 156.839 69.172 156.839 68.9874H157.134C157.134 69.1661 157.139 69.349 157.148 69.5458L156.854 69.5595ZM155.761 71.613C155.708 71.4443 155.737 71.2543 155.799 71.0726C155.861 70.888 155.964 70.6922 156.084 70.5007C156.324 70.1174 156.645 69.7312 156.891 69.4546L157.111 69.6507C156.869 69.9227 156.561 70.2945 156.334 70.657C156.22 70.8385 156.13 71.0127 156.078 71.1673C156.024 71.3249 156.016 71.4435 156.042 71.5249L155.761 71.613ZM157.532 72.8293C157.031 72.6549 156.629 72.4698 156.334 72.273C156.041 72.0778 155.837 71.8596 155.76 71.6125L156.042 71.5255C156.089 71.6786 156.229 71.8487 156.497 72.0279C156.764 72.2054 157.14 72.3808 157.629 72.5511L157.532 72.8293ZM158.688 75.3885C158.165 74.5557 157.747 73.6677 157.441 72.7362L157.721 72.6442C158.019 73.5528 158.427 74.4192 158.938 75.2318L158.688 75.3885ZM158.518 77.676C158.469 77.6108 158.444 77.5258 158.429 77.4454C158.415 77.3615 158.409 77.2646 158.408 77.1619C158.407 76.9562 158.43 76.711 158.461 76.4675C158.524 75.9794 158.626 75.4801 158.669 75.2793L158.957 75.341C158.914 75.5392 158.814 76.0291 158.753 76.505C158.722 76.7435 158.702 76.974 158.703 77.1608C158.703 77.2543 158.709 77.3328 158.72 77.3939C158.731 77.4585 158.746 77.4881 158.753 77.4974L158.518 77.676ZM159.367 77.9472C159.183 77.9472 159.016 77.9345 158.875 77.8967C158.733 77.8585 158.606 77.7916 158.518 77.6757L158.753 77.4977C158.789 77.5449 158.849 77.5846 158.951 77.6122C159.056 77.6401 159.192 77.6525 159.367 77.6525V77.9472ZM160.212 77.9023C159.892 77.9262 159.606 77.9472 159.367 77.9472V77.6525C159.592 77.6525 159.867 77.6327 160.19 77.6085L160.212 77.9023ZM160.795 77.8618C160.589 77.8742 160.393 77.8882 160.212 77.9022L160.189 77.6085C160.372 77.5944 160.57 77.5803 160.778 77.5678L160.795 77.8618ZM163.486 79.8331C162.46 79.2866 161.52 78.6119 160.685 77.8218L160.888 77.6078C161.703 78.3795 162.622 79.0388 163.625 79.5731L163.486 79.8331ZM164.04 81.325C164.011 81.3164 163.958 81.2999 163.899 81.2475C163.845 81.1988 163.792 81.1263 163.741 81.0187C163.638 80.8055 163.524 80.4244 163.41 79.7268L163.701 79.6793C163.814 80.3698 163.923 80.717 164.006 80.8912C164.047 80.9773 164.079 81.0131 164.095 81.0275C164.107 81.0381 164.112 81.0392 164.124 81.0426L164.04 81.325ZM166.006 80.8185C165.545 81.0013 165.142 81.1509 164.817 81.2439C164.655 81.2904 164.508 81.3238 164.381 81.3396C164.256 81.3551 164.138 81.3554 164.038 81.3245L164.125 81.0431C164.166 81.0558 164.236 81.0607 164.345 81.0472C164.45 81.0341 164.581 81.005 164.736 80.9607C165.046 80.872 165.437 80.727 165.897 80.5446L166.006 80.8185ZM169.026 81.349C167.968 81.2981 166.923 81.122 165.91 80.8229L165.993 80.5403C166.984 80.8328 168.006 81.005 169.04 81.0547L169.026 81.349ZM169.136 81.0973C169.232 81.1917 169.443 81.3962 169.664 81.579C169.775 81.6706 169.886 81.7544 169.984 81.8159C170.089 81.8813 170.158 81.9076 170.191 81.9103L170.168 82.204C170.057 82.1952 169.935 82.1329 169.828 82.0656C169.714 81.9945 169.592 81.9017 169.477 81.8063C169.245 81.6149 169.026 81.4032 168.929 81.3064L169.136 81.0973ZM170.201 81.9113C170.2 81.9113 170.201 81.9114 170.204 81.9115C170.208 81.9117 170.212 81.9117 170.22 81.9117V82.2063C170.207 82.2063 170.184 82.2066 170.159 82.2029L170.201 81.9113ZM170.22 81.9117H170.22V82.2063H170.22V81.9117ZM170.22 81.9117C170.322 81.9117 170.429 81.8692 170.599 81.7244C170.771 81.5778 170.985 81.3469 171.301 81.0031L171.518 81.2027C171.207 81.5405 170.979 81.7877 170.79 81.9487C170.599 82.1116 170.425 82.2063 170.22 82.2063V81.9117ZM174.504 80.4536C173.512 80.843 172.483 81.1092 171.429 81.249L171.39 80.9569C172.421 80.8202 173.426 80.5601 174.397 80.1794L174.504 80.4536ZM175.916 81.5127C175.818 81.5127 175.714 81.4818 175.609 81.4333C175.502 81.3843 175.385 81.3129 175.258 81.222C175.004 81.0403 174.7 80.7719 174.347 80.421L174.554 80.212C174.902 80.5579 175.194 80.814 175.43 80.9825C175.547 81.0668 175.648 81.127 175.732 81.1657C175.817 81.2051 175.877 81.2181 175.916 81.2181V81.5127ZM176.065 81.4854C176.017 81.5047 175.967 81.5127 175.916 81.5127V81.2181C175.935 81.2181 175.948 81.2151 175.955 81.2121L176.065 81.4854ZM176.126 81.4546C176.107 81.4661 176.087 81.4761 176.067 81.4847L175.953 81.2128C175.96 81.2099 175.967 81.2065 175.974 81.2022L176.126 81.4546ZM176.243 81.4238C176.186 81.4525 176.126 81.4687 176.065 81.4749L176.035 81.1818C176.064 81.1789 176.088 81.1718 176.11 81.1609L176.243 81.4238ZM176.318 81.3324L176.316 81.3375L176.036 81.2472L176.038 81.2421L176.318 81.3324ZM176.245 81.4181L176.244 81.4189L176.112 81.1556L176.113 81.1549L176.245 81.4181ZM176.321 81.3281L176.32 81.3317L176.039 81.2413L176.04 81.2378L176.321 81.3281ZM176.25 81.4131L176.247 81.4146L176.114 81.1514L176.117 81.1499L176.25 81.4131ZM176.375 81.1454C176.36 81.2073 176.343 81.268 176.324 81.3269L176.043 81.2362C176.06 81.1848 176.075 81.1309 176.089 81.0751L176.375 81.1454ZM176.602 79.3167C176.605 79.7641 176.588 80.1412 176.55 80.448C176.512 80.7526 176.452 80.998 176.364 81.1758L176.1 81.0447C176.166 80.9107 176.221 80.7035 176.257 80.4117C176.293 80.122 176.31 79.7586 176.308 79.3185L176.602 79.3167ZM178.293 78.1476C177.746 78.6277 177.156 79.0616 176.532 79.4433L176.378 79.1919C176.988 78.819 177.564 78.3951 178.099 77.926L178.293 78.1476ZM178.666 78.202C178.444 78.202 178.256 78.1894 178.185 78.1837L178.208 77.89C178.275 77.8953 178.454 77.9074 178.666 77.9074V78.202ZM179.623 78.0638C179.495 78.1241 179.329 78.1574 179.166 78.1765C179 78.1959 178.824 78.202 178.666 78.202V77.9074C178.817 77.9074 178.981 77.9015 179.132 77.8839C179.285 77.8659 179.413 77.8371 179.497 77.7973L179.623 78.0638ZM179.994 77.4856C179.991 77.6071 179.972 77.7233 179.909 77.8267C179.845 77.9316 179.748 78.0049 179.622 78.0639L179.497 77.7972C179.591 77.753 179.634 77.7123 179.657 77.6736C179.682 77.6334 179.697 77.5766 179.7 77.4772L179.994 77.4856ZM179.947 76.6017C179.999 76.8443 180.051 77.1994 179.992 77.509L179.702 77.4538C179.75 77.2042 179.709 76.8969 179.659 76.6635L179.947 76.6017ZM179.944 76.3496C179.945 76.4497 179.947 76.5418 179.951 76.6271L179.656 76.6381C179.653 76.5506 179.65 76.456 179.649 76.3535L179.944 76.3496ZM180.82 75.1134C180.549 75.572 180.243 76.0197 179.912 76.4424L179.68 76.2607C180.003 75.8481 180.302 75.411 180.567 74.9633L180.82 75.1134ZM181.998 75.0186C181.459 75.1221 180.932 75.1684 180.705 75.1852L180.683 74.8914C180.905 74.8749 181.42 74.8296 181.943 74.7293L181.998 75.0186ZM182.435 74.9208C182.29 74.9617 182.141 74.9938 181.996 75.0191L181.945 74.7288C182.083 74.7049 182.222 74.6749 182.356 74.6372L182.435 74.9208ZM183.573 74.2565C183.493 74.4365 183.319 74.5698 183.126 74.6709C182.927 74.7742 182.684 74.8561 182.433 74.9216L182.358 74.6364C182.6 74.5737 182.819 74.4984 182.989 74.4096C183.164 74.3187 183.265 74.2251 183.303 74.1374L183.573 74.2565ZM183.635 74.0352C183.624 74.1124 183.604 74.1867 183.573 74.2566L183.303 74.1373C183.322 74.0948 183.336 74.0464 183.344 73.9919L183.635 74.0352ZM182.988 72.073C183.191 72.3888 183.395 72.7486 183.527 73.0916C183.657 73.4269 183.731 73.7803 183.628 74.0638L183.351 73.9633C183.415 73.7867 183.378 73.5218 183.253 73.1977C183.131 72.8814 182.938 72.5408 182.74 72.2324L182.988 72.073ZM182.287 70.9875C182.527 71.328 182.774 71.7033 182.991 72.0791L182.736 72.2263C182.525 71.8605 182.283 71.4929 182.046 71.1572L182.287 70.9875ZM182.432 70.2499C182.402 70.5324 182.362 70.8156 182.312 71.0981L182.021 71.0466C182.07 70.7707 182.11 70.4943 182.139 70.2186L182.432 70.2499ZM182.641 70.1608C182.554 70.2221 182.464 70.2847 182.374 70.3522L182.197 70.1163C182.292 70.0456 182.385 69.9805 182.472 69.9195L182.641 70.1608ZM182.693 70.1241L182.641 70.1607L182.472 69.9196L182.524 69.8829L182.693 70.1241ZM183.468 69.287C183.434 69.472 183.323 69.6199 183.187 69.7482C183.051 69.8757 182.876 69.9975 182.693 70.1245L182.525 69.8825C182.713 69.7519 182.868 69.6431 182.985 69.5337C183.1 69.4253 183.16 69.3305 183.178 69.2338L183.468 69.287ZM182.406 67.9064C182.522 67.9997 182.796 68.2278 183.034 68.4784C183.153 68.6033 183.267 68.7384 183.348 68.8685C183.425 68.9905 183.494 69.1416 183.468 69.2864L183.178 69.2343C183.183 69.2062 183.17 69.1388 183.099 69.0248C183.032 68.9188 182.933 68.8001 182.82 68.6814C182.595 68.4448 182.333 68.2263 182.221 68.136L182.406 67.9064ZM182.01 65.5947C182.241 66.3757 182.393 67.1838 182.46 68.0092L182.167 68.0332C182.101 67.2281 181.952 66.4399 181.728 65.6781L182.01 65.5947ZM183.648 63.8778C183.583 64.418 183.405 64.858 183.106 65.1831C182.806 65.5091 182.396 65.7065 181.891 65.7821L181.847 65.4907C182.3 65.423 182.644 65.2507 182.889 64.9837C183.136 64.7157 183.295 64.3392 183.355 63.8425L183.648 63.8778ZM181.968 57.2451C182.018 57.2696 182.064 57.3085 182.105 57.3504C182.148 57.3937 182.192 57.4473 182.237 57.5089C182.327 57.6321 182.425 57.795 182.527 57.9898C182.732 58.3797 182.955 58.9071 183.151 59.5211C183.544 60.7477 183.835 62.335 183.648 63.8779L183.355 63.8424C183.536 62.3553 183.255 60.8125 182.871 59.6109C182.679 59.0108 182.462 58.4995 182.267 58.1265C182.169 57.9398 182.077 57.7903 181.999 57.6824C181.96 57.6284 181.925 57.5869 181.895 57.557C181.865 57.5257 181.846 57.5133 181.839 57.5099L181.968 57.2451ZM181.64 57.2921C181.733 57.1992 181.863 57.1924 181.969 57.2459L181.837 57.5092C181.83 57.5054 181.829 57.5073 181.834 57.5067C181.837 57.5063 181.84 57.5055 181.843 57.5041C181.846 57.5026 181.848 57.501 181.849 57.5L181.64 57.2921ZM179.61 60.9283C180.095 60.0065 180.544 59.1584 180.898 58.514C181.075 58.1919 181.229 57.9194 181.352 57.7135C181.414 57.6107 181.468 57.5232 181.515 57.454C181.56 57.3871 181.603 57.3295 181.64 57.2921L181.849 57.5C181.833 57.5159 181.804 57.5531 181.759 57.6187C181.717 57.6819 181.665 57.7644 181.605 57.865C181.484 58.0662 181.332 58.3348 181.156 58.6558C180.803 59.2976 180.356 60.1434 179.871 61.0655L179.61 60.9283ZM179.432 61.2656L179.61 60.9282L179.871 61.0656L179.693 61.403L179.432 61.2656ZM178.783 60.2767C179.098 60.5834 179.396 60.9049 179.676 61.24L179.449 61.4286C179.177 61.1015 178.886 60.7875 178.577 60.488L178.783 60.2767ZM178.336 59.0162C178.403 59.0936 178.461 59.1999 178.51 59.3108C178.561 59.4239 178.607 59.5517 178.647 59.679C178.728 59.9335 178.79 60.1949 178.824 60.3508L178.536 60.414C178.503 60.262 178.443 60.0104 178.366 59.7681C178.328 59.6469 178.286 59.5303 178.241 59.4307C178.196 59.3289 178.152 59.2542 178.114 59.2098L178.336 59.0162ZM177.185 59.0543C177.279 59.0084 177.478 58.9182 177.689 58.8743C177.886 58.8333 178.163 58.8185 178.336 59.0162L178.114 59.2098C178.058 59.1457 177.937 59.1236 177.749 59.1628C177.575 59.1991 177.401 59.2766 177.315 59.3188L177.185 59.0543ZM175.685 58.0594C176.267 58.3578 176.818 58.695 177.336 59.0669L177.164 59.3062C176.658 58.9429 176.12 58.6132 175.551 58.3216L175.685 58.0594ZM174.231 55.3021C174.421 55.3447 174.587 55.4896 174.729 55.668C174.874 55.8502 175.011 56.0885 175.137 56.3542C175.388 56.8865 175.605 57.5507 175.761 58.1537L175.476 58.2273C175.323 57.6349 175.111 56.9898 174.87 56.4801C174.75 56.2249 174.624 56.009 174.499 55.8515C174.37 55.6902 174.257 55.6099 174.167 55.5896L174.231 55.3021ZM172.35 56.1877C172.737 55.8547 173.086 55.61 173.395 55.4599C173.701 55.3109 173.984 55.2466 174.231 55.3021L174.167 55.5896C174.013 55.5551 173.803 55.5889 173.524 55.7248C173.247 55.8595 172.92 56.0866 172.543 56.411L172.35 56.1877ZM172.088 56.4217C172.174 56.3358 172.263 56.2568 172.355 56.1842L172.538 56.4145C172.455 56.4809 172.374 56.5527 172.296 56.6303L172.088 56.4217ZM171.666 56.8281C171.813 56.6808 171.955 56.5439 172.092 56.4176L172.292 56.6344C172.158 56.7576 172.019 56.8915 171.874 57.0362L171.666 56.8281ZM169.9 56.617C170.528 56.6286 171.16 56.6849 171.793 56.7867L171.747 57.0776C171.127 56.9779 170.508 56.9229 169.894 56.9115L169.9 56.617ZM168.748 55.6169C168.883 55.6175 169.019 55.6858 169.135 55.7646C169.256 55.8466 169.378 55.9557 169.491 56.0685C169.717 56.2944 169.919 56.5501 170.014 56.675L169.78 56.8535C169.688 56.7325 169.495 56.4889 169.283 56.2768C169.176 56.1705 169.069 56.0757 168.97 56.0085C168.866 55.9381 168.791 55.9117 168.747 55.9115L168.748 55.6169ZM167.517 56.8408C167.605 56.6996 167.795 56.404 168.01 56.1424C168.118 56.0119 168.236 55.8853 168.354 55.79C168.466 55.6993 168.604 55.6163 168.748 55.6169L168.747 55.9115C168.71 55.9114 168.641 55.9373 168.539 56.0193C168.443 56.0968 168.339 56.2065 168.238 56.3299C168.035 56.576 167.853 56.8582 167.768 56.9957L167.517 56.8408ZM165.745 57.2084C166.36 57.0176 166.986 56.8719 167.62 56.7727L167.666 57.0638C167.046 57.1608 166.434 57.3031 165.832 57.4898L165.745 57.2084ZM163.737 56.7051C163.858 56.5489 164.01 56.4628 164.186 56.4409C164.355 56.4198 164.533 56.4598 164.71 56.529C165.06 56.6664 165.462 56.9433 165.872 57.2281L165.704 57.4701C165.284 57.1786 164.914 56.9254 164.602 56.8034C164.448 56.7429 164.322 56.7208 164.222 56.7333C164.128 56.745 164.045 56.7881 163.971 56.8848L163.737 56.7051ZM162.962 58.4819C163.117 58.0296 163.258 57.6545 163.386 57.3598C163.513 57.0677 163.63 56.8454 163.737 56.7053L163.971 56.8847C163.887 56.9948 163.781 57.1895 163.656 57.477C163.533 57.7619 163.394 58.129 163.24 58.5773L162.962 58.4819ZM161.641 59.3366C162.079 58.9982 162.541 58.6865 163.027 58.4025L163.175 58.6568C162.701 58.9345 162.249 59.2392 161.821 59.5698L161.641 59.3366ZM160.458 59.4537C160.575 59.3471 160.742 59.2954 160.946 59.276C161.152 59.2565 161.416 59.2683 161.748 59.3069L161.714 59.5995C161.389 59.5618 161.149 59.5527 160.974 59.5693C160.797 59.5861 160.705 59.6273 160.655 59.672L160.458 59.4537ZM160.224 60.6679C160.229 60.5085 160.241 60.2579 160.27 60.0292C160.284 59.9153 160.303 59.8026 160.328 59.7077C160.341 59.6602 160.356 59.6141 160.375 59.573C160.393 59.5336 160.419 59.4896 160.456 59.4548L160.657 59.6709C160.659 59.6683 160.653 59.6732 160.643 59.696C160.633 59.7172 160.623 59.7466 160.613 59.7845C160.592 59.8604 160.575 59.9578 160.562 60.0657C160.535 60.2808 160.524 60.5208 160.518 60.6778L160.224 60.6679ZM159.395 61.5758C159.668 61.2248 159.958 60.8896 160.265 60.5707L160.477 60.775C160.178 61.0864 159.894 61.4137 159.628 61.7565L159.395 61.5758ZM180.014 61.1434L179.805 61.5402L179.545 61.4028L179.754 61.0061L180.014 61.1434ZM180.023 61.1276L180.014 61.1434L179.754 61.0061L179.762 60.9902L180.023 61.1276ZM180.712 59.8247C180.472 60.2747 180.232 60.7304 180.023 61.1276L179.762 60.9902C179.971 60.5932 180.212 60.1368 180.452 59.6862L180.712 59.8247ZM181.291 60.3043C181.159 60.1391 181.03 60.0221 180.911 59.9547C180.794 59.8878 180.698 59.8755 180.622 59.8971L180.542 59.6138C180.717 59.564 180.895 59.6063 181.057 59.6987C181.219 59.7907 181.376 59.9379 181.521 60.1208L181.291 60.3043ZM180.049 62.0163C180.227 61.8109 180.828 61.0861 181.273 60.1493L181.539 60.2758C181.077 61.2473 180.457 61.9954 180.271 62.2095L180.049 62.0163ZM179.79 61.3788C179.961 61.5901 180.124 61.8066 180.281 62.0279L180.04 62.1978C179.887 61.9818 179.728 61.7705 179.561 61.5642L179.79 61.3788ZM180.546 62.7052C180.89 62.4744 181.49 62.0015 181.882 61.2904L182.14 61.4327C181.715 62.2025 181.072 62.707 180.71 62.9499L180.546 62.7052ZM180.796 63.4173C180.702 63.2438 180.604 63.0726 180.502 62.9038L180.754 62.7513C180.859 62.9242 180.959 63.0996 181.055 63.2774L180.796 63.4173ZM182.405 62.8532C181.898 63.2282 181.184 63.4323 180.962 63.4899L180.888 63.2047C181.108 63.1477 181.773 62.9547 182.23 62.6164L182.405 62.8532ZM182.15 61.312C182.302 61.7365 182.413 62.2152 182.464 62.72L182.171 62.7496C182.123 62.2685 182.016 61.8132 181.873 61.4111L182.15 61.312Z" fill="black"/>
<path d="M182.237 68.0623C182.16 63.9908 178.71 60.5252 178.71 60.5252C178.71 60.5252 178.498 59.4262 178.225 59.113C177.951 58.7998 177.195 59.215 177.195 59.215L175.548 58.2401C175.548 58.2401 174.993 55.6864 174.183 55.5196C173.372 55.3528 171.8 57.0133 171.8 57.0133L169.954 56.8409C169.954 56.8409 169.177 55.7661 168.747 55.7642C168.317 55.7624 167.592 57.0022 167.592 57.0022L165.778 57.4321C165.778 57.4321 164.377 56.2553 164.046 56.7242C163.716 57.1931 163.173 58.5774 163.173 58.5774L161.756 59.5337C161.756 59.5337 160.879 59.2891 160.614 59.619C160.346 59.9488 160.455 60.7031 160.455 60.7031C160.455 60.7031 156.967 64.1983 157.088 69.5801C155.656 71.1257 155.54 71.9541 157.65 72.6232C158.318 74.8359 158.905 75.2918 158.905 75.2918C158.905 75.2918 158.353 77.0691 158.705 77.5343C159.056 77.9994 160.822 77.6269 160.822 77.6269C160.822 77.6269 162.531 79.1021 163.635 79.6451C163.635 79.6451 163.557 80.644 164.111 81.1018C165.11 80.8905 165.951 80.5903 165.951 80.5903C165.951 80.5903 167.887 80.935 169.063 81.1166C169.956 81.9765 170.22 81.9765 170.22 81.9765C170.22 81.9765 171.222 81.4094 171.377 81.0202C173.267 80.631 174.476 80.2159 174.476 80.2159C174.476 80.2159 175.63 81.5632 176.183 81.2815C176.442 80.4828 176.331 79.23 176.331 79.23L178.179 77.9438C178.179 77.9438 179.518 78.2051 179.771 77.7122C180.022 77.2192 179.72 76.3148 179.72 76.3148L180.652 74.9508C180.652 74.9508 183.14 74.8841 183.483 74.0316C183.826 73.1791 182.154 71.1776 182.154 71.1776L182.217 70.1787C182.217 70.1787 183.112 69.7062 183.248 69.2373C183.376 68.7703 182.237 68.0623 182.237 68.0623Z" fill="url(#paint7_linear_3346_9238)"/>
<path opacity="0.4" d="M168.589 65.4611C168.524 66.0319 168.77 66.5304 169.137 66.573C169.504 66.6156 169.855 66.1857 169.919 65.6149C169.984 65.0441 169.739 64.5456 169.371 64.5029C169.004 64.4603 168.653 64.8884 168.589 65.4611Z" fill="#D33B22"/>
<path d="M168.602 65.3373C168.545 65.8413 168.746 66.2806 169.054 66.3139C169.36 66.3491 169.656 65.9674 169.713 65.4633C169.77 64.9592 169.569 64.52 169.263 64.4866C168.954 64.4514 168.659 64.8332 168.602 65.3373Z" fill="black"/>
<path opacity="0.4" d="M176.872 64.7012C177.066 65.2294 177.435 65.5778 177.696 65.4814C177.956 65.385 178.009 64.8791 177.814 64.3509C177.62 63.8227 177.251 63.4743 176.991 63.5707C176.73 63.6689 176.677 64.173 176.872 64.7012Z" fill="#D33B22"/>
<path d="M176.838 64.6157C177.013 65.092 177.325 65.4163 177.532 65.3385C177.74 65.2606 177.766 64.8121 177.591 64.3359C177.416 63.8596 177.104 63.5353 176.897 63.6131C176.688 63.6909 176.663 64.1394 176.838 64.6157Z" fill="black"/>
<path d="M169.28 64.6547C169.56 64.7474 169.112 65.4683 168.888 65.3349C168.663 65.2014 168.92 64.5361 169.28 64.6547Z" fill="#E8E7E6"/>
<path d="M172.94 67.2371C176.301 66.8701 179.507 67.263 182.25 68.2378C182.403 68.2934 182.211 70.1856 182.211 70.1856L182.148 71.1845C182.148 71.1845 183.82 73.186 183.477 74.0385C183.134 74.891 180.646 74.9577 180.646 74.9577L179.714 76.3217L178.174 77.9488L176.327 79.235C176.327 79.235 176.438 80.4878 176.179 81.2865C175.626 81.5664 174.472 80.2209 174.472 80.2209C174.472 80.2209 173.263 80.636 171.373 81.0252C170.753 81.1549 169.657 81.179 169.061 81.1216C167.885 80.94 165.949 80.5953 165.949 80.5953C165.949 80.5953 165.106 80.8955 164.109 81.1068C163.553 80.6509 163.633 79.6501 163.633 79.6501C162.527 79.109 160.82 77.6319 160.82 77.6319C160.82 77.6319 159.054 78.0044 158.703 77.5393C158.476 77.2372 158.626 76.3903 158.76 75.8269C160.92 71.4347 166.318 67.9598 172.94 67.2371Z" fill="url(#paint8_linear_3346_9238)"/>
<path opacity="0.3" d="M158.899 75.3008C158.899 75.3008 158.312 74.8449 157.644 72.6321C155.537 71.9631 155.653 71.1347 157.083 69.5891C157.009 66.3107 158.275 63.7347 159.276 62.2188C159.04 63.2121 158.822 65.8233 160.37 71.6443C162.502 79.6615 176.905 78.9331 180.645 74.9616L179.713 76.3256C179.713 76.3256 180.017 77.23 179.764 77.723C179.513 78.2159 178.171 77.9546 178.171 77.9546L176.324 79.2408C176.324 79.2408 176.435 80.4936 176.176 81.2923C175.623 81.5722 174.469 80.2267 174.469 80.2267C174.469 80.2267 173.26 80.6418 171.37 81.031C171.215 81.4202 170.213 81.9873 170.213 81.9873C170.213 81.9873 169.951 81.9873 169.056 81.1274C167.88 80.9458 165.944 80.6011 165.944 80.6011C165.944 80.6011 165.101 80.9013 164.104 81.1126C163.548 80.6567 163.628 79.6559 163.628 79.6559C162.522 79.1148 160.815 77.6377 160.815 77.6377C160.815 77.6377 159.049 78.0102 158.698 77.5451C158.347 77.0781 158.899 75.3008 158.899 75.3008Z" fill="#D33B22"/>
<path d="M162.313 64.3711C157.833 59.6861 156.067 59.6638 155.875 60.6998C155.875 60.6998 154.559 67.2158 159.094 68.1591C161.102 67.5197 161.997 66.1836 161.997 66.1836C161.997 66.1836 161.748 64.725 162.313 64.3711Z" fill="url(#paint9_linear_3346_9238)"/>
<path d="M179.577 61.4857C179.577 61.4857 181.397 57.6699 181.801 57.4586C182.205 57.2492 184.719 63.0777 182.724 65.2163C182.506 65.4498 182.187 65.5629 181.792 65.5758C181.793 65.5758 181.223 63.4502 179.577 61.4857Z" fill="url(#paint10_linear_3346_9238)"/>
<path d="M155.875 60.6994C156.019 59.9211 157.052 59.7413 159.457 61.6853C158.724 61.5593 158.119 61.778 157.748 62.2636C158.56 62.7769 160.744 64.1187 162.209 64.6468C162.128 64.7636 162.148 64.8451 162.065 64.9767C160.62 64.7043 158.152 64.1909 157.355 63.7221C157.355 63.7258 157.355 63.7295 157.355 63.7332C157.377 64.3077 157.492 64.8822 157.685 65.4085C158.516 65.5327 159.725 65.6346 161.103 65.5123C161.103 65.5123 159.605 66.2388 158.256 66.4852C158.739 67.1431 159.404 67.599 160.232 67.6695C159.902 67.8511 159.525 68.0197 159.095 68.1569C154.559 67.2154 155.875 60.6994 155.875 60.6994Z" fill="url(#paint11_linear_3346_9238)"/>
<path d="M169.866 74.8636C171.54 74.4151 173.788 76.665 171.189 76.9355C168.59 77.2043 167.346 75.5401 169.866 74.8636Z" fill="#F9C18A"/>
<path d="M180.107 62.1733C180.107 62.1733 180.867 61.3467 181.406 60.2125C181.083 59.8067 180.734 59.6288 180.461 59.8122L180.478 59.6695C180.998 58.654 181.592 57.568 181.803 57.4586C182.207 57.2492 184.721 63.0777 182.726 65.2163C182.508 65.4498 182.189 65.5629 181.794 65.5758C182.067 65.081 182.225 64.551 182.299 64.021C181.77 64.1247 181.153 64.0247 181.153 64.0247L180.854 63.3649C180.854 63.3649 181.736 63.1648 182.318 62.7348C182.268 62.2418 182.159 61.7748 182.011 61.3616C181.578 62.1473 180.904 62.6496 180.566 62.8682C180.437 62.9498 180.107 62.1733 180.107 62.1733Z" fill="url(#paint12_linear_3346_9238)"/>
<path opacity="0.4" d="M162.104 66.3439C161.267 69.1367 159.372 70.2487 158.388 69.8039C157.405 69.3591 157.083 68.2713 157.083 68.2713C157.083 68.2713 157.227 67.5467 157.19 67.3057C156.186 66.3939 155.893 64.6797 155.893 64.6797C155.893 64.6797 158.536 68.0266 161.952 65.7397C162.056 65.8899 162.104 66.3439 162.104 66.3439Z" fill="#D33B22"/>
<path opacity="0.3" d="M183.477 74.0405C182.565 74.5965 181.199 73.6328 181.199 73.6328L180.645 74.9597C180.645 74.9597 182.986 75.0783 183.477 74.0405Z" fill="#D33B22"/>
<path d="M173.37 74.8104C173.241 75.1978 171.534 74.3638 172.174 73.8894C172.815 73.415 173.706 73.7986 173.37 74.8104Z" fill="#F9C18A"/>
<path opacity="0.5" d="M173.986 60.2548C175.182 60.3215 175.667 62.0246 174.455 62.0209C173.24 62.0153 171.996 60.1436 173.986 60.2548Z" fill="#C65326"/>
<path d="M171.418 59.4643C171.957 59.1067 172.529 60.3094 172.062 60.5744C171.599 60.8394 170.879 59.822 171.418 59.4643Z" fill="#C65326"/>
<path d="M165.244 59.1256C166.089 58.9792 167.065 60.788 165.785 60.9362C164.506 61.0826 164.136 59.3165 165.244 59.1256Z" fill="#C65326"/>
<path d="M163.114 58.6172C164.076 59.6661 164.183 61.0357 163.413 61.7955C162.708 62.4905 160.805 62.2403 159.587 61.714C160.331 60.8726 161.885 59.2213 163.114 58.6172Z" fill="#C65326"/>
<path d="M176.899 63.7863C176.701 63.903 177.157 64.3886 177.305 64.2496C177.453 64.1106 177.15 63.638 176.899 63.7863Z" fill="#E8E7E6"/>
<path opacity="0.3" d="M174.184 55.5234C173.429 56.3203 173.503 57.5435 173.503 57.5435C173.503 57.5435 172.257 57.1209 171.799 57.0172C172.58 55.7681 174.184 55.5234 174.184 55.5234Z" fill="#D33B22"/>
<path d="M165.77 74.9853C166.148 75.1132 165.843 75.9286 165.585 75.8916C165.327 75.8564 165.437 74.8741 165.77 74.9853Z" fill="white"/>
<path opacity="0.3" d="M178.969 71.59C178.153 71.59 177.723 71.2546 177.45 71.6994C177.45 71.6994 177.95 72.8558 178.744 72.4852C178.941 72.2257 178.969 71.59 178.969 71.59Z" fill="#D33B22"/>
<path opacity="0.3" d="M166.778 75.5164C167.258 75.5849 166.765 76.5301 166.446 76.6042C166.127 76.6783 165.278 76.1594 165.278 76.1594C165.278 76.1594 166.607 75.4904 166.778 75.5164Z" fill="#D33B22"/>
<path opacity="0.4" d="M172.374 65.9638C172.796 65.2447 172.892 64.3107 171.635 64.0234C171.635 64.0234 172.538 64.2996 172.374 65.9638Z" fill="#D33B22"/>
<path d="M161.479 59.474C161.329 59.4647 161.185 59.4555 161.045 59.4481C161.194 59.4389 161.349 59.4537 161.479 59.474Z" fill="url(#paint13_linear_3346_9238)"/>
<path d="M179.714 76.406C179.738 76.406 179.762 76.3949 179.778 76.3745C180.112 75.9501 180.421 75.4998 180.694 75.0383C181.194 75.0013 183.163 74.8196 183.438 74.1969C183.733 73.5298 182.916 72.1361 182.167 71.0724C182.29 70.3756 182.353 69.675 182.353 68.9912C182.353 64.4582 179.773 60.3217 175.618 58.1905C175.31 56.9951 174.76 55.5719 174.199 55.4458C173.688 55.3309 172.87 55.8295 171.77 56.9321C169.729 56.6041 167.706 56.7542 165.788 57.3491C164.958 56.7728 164.244 56.2891 163.854 56.795C163.662 57.0452 163.409 57.629 163.101 58.5296C161.673 59.3654 160.447 60.444 159.458 61.7357C159.43 61.7728 159.438 61.8247 159.473 61.8525C159.509 61.8803 159.559 61.8729 159.587 61.8377C160.569 60.5552 161.789 59.4859 163.21 58.6575C163.227 58.6482 163.24 58.6316 163.247 58.613C163.548 57.7235 163.802 57.1304 163.983 56.8969C164.264 56.5337 164.829 56.8858 165.727 57.5085C165.748 57.5233 165.774 57.527 165.799 57.5196C167.717 56.9173 169.744 56.7653 171.787 57.1008C171.812 57.1063 171.838 57.0971 171.857 57.0785C172.916 56.0148 173.712 55.5033 174.164 55.6071C174.601 55.7053 175.151 57.0192 175.469 58.2665C175.474 58.2887 175.491 58.3091 175.511 58.3202C179.631 60.4181 182.189 64.5063 182.189 68.9912C182.189 69.6769 182.124 70.3793 181.999 71.0779C181.995 71.1002 182 71.1224 182.013 71.141C183.043 72.5995 183.497 73.6632 183.289 74.1321C183.134 74.4805 182.069 74.7807 180.64 74.8789C180.612 74.8808 180.588 74.8956 180.576 74.9197C180.301 75.3886 179.989 75.8445 179.651 76.2763C179.623 76.3115 179.629 76.3634 179.664 76.393C179.677 76.4005 179.695 76.406 179.714 76.406Z" fill="black"/>
<path d="M159.674 76.4652C159.692 76.4652 159.711 76.4597 159.725 76.4467C159.76 76.4189 159.766 76.367 159.738 76.33C158.839 75.2032 158.162 73.9485 157.723 72.5994C157.715 72.5753 157.695 72.5549 157.671 72.5475C156.723 72.2232 156.165 71.8674 156.056 71.5208C155.962 71.215 156.379 70.4941 157.145 69.6379C157.16 69.6212 157.167 69.6008 157.165 69.5786C157.154 69.3692 157.151 69.1764 157.151 68.9874C157.151 68.4277 157.191 67.8643 157.271 67.3139C157.278 67.2695 157.247 67.2268 157.201 67.2194C157.154 67.2139 157.114 67.2435 157.108 67.2898C157.027 67.8495 156.986 68.4203 156.986 68.9874C156.986 69.169 156.992 69.3544 157.001 69.5527C156.512 70.1012 155.744 71.0686 155.901 71.569C156.025 71.9693 156.59 72.3455 157.581 72.6902C158.026 74.0431 158.708 75.3033 159.611 76.4337C159.626 76.456 159.65 76.4652 159.674 76.4652Z" fill="black"/>
<path d="M175.916 81.3654C175.951 81.3654 175.982 81.3599 176.01 81.3488C176.316 81.2209 176.462 80.5556 176.455 79.3176C177.361 78.7635 178.193 78.0982 178.93 77.3402C178.961 77.3068 178.961 77.2549 178.928 77.2234C178.895 77.1919 178.843 77.1919 178.812 77.2253C178.075 77.9833 177.241 78.6486 176.329 79.2008C176.305 79.2157 176.289 79.2435 176.289 79.2731C176.303 80.8743 176.052 81.1523 175.945 81.1968C175.809 81.2542 175.32 80.954 174.528 80.1608C174.504 80.1367 174.469 80.1293 174.439 80.1423C172.922 80.7465 171.317 81.0522 169.668 81.0522C168.412 81.0522 167.168 80.8706 165.968 80.5148C165.949 80.5092 165.931 80.5111 165.914 80.5166C165.427 80.7112 164.414 81.1152 164.128 81.0263C164.093 81.0152 163.91 80.8984 163.709 79.6364C163.705 79.6104 163.689 79.5882 163.666 79.5771C162.454 78.9377 161.365 78.113 160.429 77.1271C160.398 77.0937 160.346 77.0937 160.313 77.1234C160.28 77.1549 160.28 77.2068 160.311 77.2401C161.249 78.2279 162.341 79.0563 163.556 79.7031C163.783 81.0912 164 81.1597 164.082 81.1838C164.362 81.2709 165.03 81.0467 165.951 80.6816C167.157 81.0374 168.408 81.2172 169.67 81.2172C171.322 81.2172 172.93 80.9132 174.45 80.3165C175.152 81.0133 175.643 81.3654 175.916 81.3654Z" fill="black"/>
<path d="M159.367 77.7998C159.599 77.7998 159.88 77.7795 160.201 77.7554C160.393 77.7405 160.601 77.7257 160.821 77.7127C160.867 77.7109 160.9 77.6701 160.898 77.6256C160.897 77.5793 160.863 77.546 160.812 77.5478C160.59 77.5608 160.382 77.5756 160.19 77.5904C159.479 77.6442 158.918 77.6849 158.765 77.4866C158.626 77.3069 158.807 76.106 158.981 75.3109C158.99 75.2665 158.962 75.222 158.918 75.2127C158.872 75.2035 158.829 75.2313 158.82 75.2757C158.748 75.6075 158.401 77.2791 158.636 77.5867C158.759 77.7498 159.008 77.7998 159.367 77.7998Z" fill="black"/>
<path d="M182.21 70.2704C182.227 70.2704 182.245 70.2648 182.26 70.2537C182.38 70.1629 182.498 70.0814 182.609 70.0035C182.98 69.7459 183.271 69.5421 183.323 69.2604C183.388 68.9009 182.474 68.1484 182.289 68.002C182.254 67.9742 182.203 67.9798 182.173 68.015C182.145 68.0502 182.151 68.1021 182.186 68.1318C182.612 68.4709 183.196 69.038 183.161 69.2307C183.122 69.4457 182.854 69.6329 182.515 69.8682C182.402 69.9461 182.282 70.0295 182.16 70.1221C182.123 70.1499 182.116 70.2018 182.144 70.237C182.16 70.2574 182.186 70.2704 182.21 70.2704Z" fill="black"/>
<path d="M178.666 78.0547C178.975 78.0547 179.347 78.0306 179.56 77.9306C179.879 77.7804 179.864 77.584 179.831 77.1133C179.816 76.9113 179.8 76.6611 179.796 76.3238C179.796 76.2775 179.763 76.2404 179.713 76.2423C179.667 76.2423 179.632 76.2793 179.632 76.3256C179.635 76.6666 179.654 76.9205 179.667 77.1244C179.702 77.6155 179.698 77.6822 179.49 77.7804C179.135 77.9491 178.19 77.8713 178.181 77.8694C178.133 77.8638 178.096 77.8991 178.092 77.9454C178.089 77.9917 178.122 78.0306 178.168 78.0343C178.185 78.0362 178.401 78.0547 178.666 78.0547Z" fill="black"/>
<path d="M160.451 60.7934C160.496 60.7934 160.532 60.7582 160.534 60.7137C160.545 60.2726 160.603 59.7537 160.667 59.687C160.791 59.5721 161.145 59.5517 161.745 59.6222C161.789 59.6259 161.832 59.5944 161.837 59.5499C161.843 59.5054 161.81 59.4628 161.765 59.4572C161.086 59.3757 160.726 59.409 160.556 59.5629C160.412 59.6963 160.379 60.4061 160.37 60.7063C160.368 60.7526 160.405 60.7897 160.449 60.7916C160.449 60.7934 160.449 60.7934 160.451 60.7934Z" fill="black"/>
<path d="M162.372 66.8605C162.387 66.8605 162.403 66.8568 162.416 66.8476C162.457 66.8235 162.47 66.7697 162.444 66.729C162.075 66.1285 161.982 65.4261 162.193 64.8535C162.331 64.4791 162.59 64.2048 162.903 64.1048C162.948 64.0899 162.973 64.0418 162.959 63.9973C162.944 63.9528 162.896 63.9269 162.852 63.9417C162.488 64.0584 162.189 64.3698 162.032 64.796C161.803 65.4187 161.903 66.1767 162.298 66.8216C162.316 66.8457 162.344 66.8605 162.372 66.8605Z" fill="black"/>
<path d="M159.024 68.2597C159.948 68.2597 160.997 67.5536 162.145 66.1544C162.174 66.1173 162.17 66.0636 162.133 66.0339C162.097 66.0043 162.043 66.008 162.013 66.045C160.738 67.598 159.609 68.2708 158.656 68.0447C157.591 67.7908 156.794 66.9957 156.285 65.6855C155.474 63.595 155.718 61.0524 156.034 60.5817C156.117 60.4594 156.257 60.3908 156.454 60.3778C157.466 60.313 159.78 61.7121 162.248 64.5143C162.279 64.5495 162.333 64.5532 162.37 64.5217C162.405 64.4902 162.408 64.4364 162.377 64.3994C159.754 61.423 157.464 60.1406 156.443 60.2055C156.19 60.2221 156.004 60.3167 155.891 60.4834C155.509 61.0505 155.341 63.7248 156.124 65.7448C156.646 67.0921 157.508 67.9446 158.616 68.2096C158.749 68.2448 158.885 68.2597 159.024 68.2597Z" fill="black"/>
<path d="M181.769 65.6485C181.772 65.6485 181.776 65.6485 181.778 65.6485C182.793 65.5299 183.372 64.9295 183.502 63.8602C183.869 60.8301 182.359 57.5999 181.903 57.3775C181.844 57.3479 181.785 57.3553 181.745 57.3961C181.532 57.6092 180.711 59.1529 179.74 60.9969L179.506 61.4417C179.484 61.4825 179.5 61.5325 179.539 61.5529C179.58 61.5733 179.629 61.5584 179.65 61.5195L179.884 61.0747C180.571 59.7719 181.599 57.8204 181.844 57.5313C182.199 57.7204 183.701 60.8505 183.339 63.8398C183.221 64.822 182.69 65.3743 181.759 65.4836C181.715 65.4892 181.682 65.5299 181.687 65.5744C181.693 65.617 181.728 65.6485 181.769 65.6485Z" fill="black"/>
<path d="M172.373 65.0623C172.395 65.0623 172.418 65.053 172.434 65.0345C173.006 64.4007 173.852 64.2821 174.586 64.7361C174.625 64.7602 174.677 64.7473 174.699 64.7083C174.723 64.6694 174.71 64.6194 174.671 64.5953C174.01 64.1894 173.025 64.132 172.311 64.9252C172.279 64.9585 172.283 65.0104 172.316 65.0419C172.335 65.0549 172.353 65.0623 172.373 65.0623Z" fill="black"/>
<path d="M174.898 65.6555C174.909 65.6555 174.922 65.6536 174.933 65.6481C174.974 65.6277 174.992 65.5795 174.972 65.5387C174.967 65.5295 174.509 64.5454 174.968 63.7893C174.992 63.7503 174.979 63.7003 174.941 63.6762C174.902 63.6521 174.852 63.6651 174.828 63.704C174.321 64.5361 174.804 65.5665 174.824 65.611C174.837 65.637 174.867 65.6555 174.898 65.6555Z" fill="black"/>
<path d="M172.374 66.0401C172.411 66.0401 172.444 66.016 172.453 65.979C172.457 65.966 172.795 64.6261 171.678 63.9497C171.639 63.9256 171.589 63.9385 171.565 63.9775C171.541 64.0164 171.554 64.0664 171.593 64.0905C172.603 64.7021 172.307 65.8863 172.293 65.9363C172.281 65.9808 172.307 66.0253 172.352 66.0364C172.359 66.0383 172.366 66.0401 172.374 66.0401Z" fill="black"/>
<path d="M165.635 76.2991C165.899 76.2991 166.288 76.2083 166.89 75.9822C166.932 75.9655 166.954 75.9192 166.938 75.8765C166.921 75.8339 166.875 75.8117 166.833 75.8284C165.692 76.2583 165.413 76.1619 165.282 75.9933C165.192 75.8765 165.299 75.1686 165.45 74.5793C165.461 74.5348 165.435 74.4903 165.391 74.4792C165.347 74.4681 165.303 74.494 165.292 74.5385C165.236 74.7553 164.965 75.8543 165.153 76.0952C165.247 76.2175 165.384 76.2991 165.635 76.2991Z" fill="black"/>
<path d="M178.505 72.1198C178.523 72.1198 178.54 72.1198 178.558 72.1179C178.669 72.1086 178.759 72.0642 178.828 71.9826C179.001 71.775 179.001 71.3822 178.946 70.8169C178.942 70.7706 178.901 70.7372 178.855 70.7428C178.809 70.7465 178.778 70.7873 178.782 70.8336C178.824 71.2747 178.844 71.7065 178.7 71.877C178.662 71.9252 178.612 71.9493 178.543 71.9548C178.184 71.9808 177.491 71.6379 177.484 71.6342C177.443 71.6138 177.394 71.6305 177.373 71.6713C177.353 71.712 177.37 71.7621 177.41 71.7825C177.442 71.7936 178.093 72.1198 178.505 72.1198Z" fill="black"/>
<path d="M258.33 28.0614C258.256 24.1599 254.95 20.8391 254.95 20.8391C254.95 20.8391 254.747 19.786 254.485 19.4859C254.223 19.1858 253.498 19.5836 253.498 19.5836L251.921 18.6495C251.921 18.6495 251.389 16.2024 250.612 16.0425C249.836 15.8827 248.329 17.4739 248.329 17.4739L246.56 17.3087C246.56 17.3087 245.816 16.2787 245.404 16.2769C244.992 16.2752 244.297 17.4632 244.297 17.4632L242.558 17.8752C242.558 17.8752 241.216 16.7475 240.899 17.1968C240.583 17.6461 240.063 18.9727 240.063 18.9727L238.704 19.889C238.704 19.889 237.864 19.6546 237.61 19.9707C237.353 20.2868 237.458 21.0095 237.458 21.0095C237.458 21.0095 234.115 24.3588 234.232 29.5158C232.859 30.9969 232.748 31.7907 234.769 32.4317C235.41 34.5521 235.972 34.9889 235.972 34.9889C235.972 34.9889 235.443 36.692 235.781 37.1377C236.117 37.5834 237.81 37.2265 237.81 37.2265C237.81 37.2265 239.447 38.6401 240.505 39.1604C240.505 39.1604 240.431 40.1176 240.961 40.5562C241.918 40.3538 242.724 40.0661 242.724 40.0661C242.724 40.0661 244.58 40.3964 245.706 40.5704C246.562 41.3944 246.815 41.3944 246.815 41.3944C246.815 41.3944 247.775 40.851 247.924 40.4781C249.735 40.1051 250.893 39.7073 250.893 39.7073C250.893 39.7073 251.999 40.9984 252.529 40.7285C252.777 39.9631 252.671 38.7626 252.671 38.7626L254.441 37.5302C254.441 37.5302 255.725 37.7806 255.967 37.3082C256.208 36.8358 255.918 35.9692 255.918 35.9692L256.811 34.6622C256.811 34.6622 259.195 34.5983 259.524 33.7814C259.853 32.9645 258.25 31.0466 258.25 31.0466L258.311 30.0894C258.311 30.0894 259.168 29.6366 259.299 29.1873C259.421 28.7398 258.33 28.0614 258.33 28.0614Z" fill="url(#paint14_linear_3346_9238)"/>
<path opacity="0.4" d="M245.252 25.5693C245.19 26.1163 245.425 26.594 245.777 26.6349C246.129 26.6757 246.465 26.2637 246.527 25.7167C246.589 25.1698 246.354 24.6921 246.002 24.6512C245.65 24.6104 245.314 25.0206 245.252 25.5693Z" fill="white" fill-opacity="0.5"/>
<path d="M245.264 25.4501C245.209 25.9331 245.402 26.354 245.697 26.3859C245.991 26.4197 246.274 26.0539 246.329 25.5708C246.383 25.0878 246.191 24.6669 245.897 24.635C245.602 24.6012 245.319 24.9671 245.264 25.4501Z" fill="black"/>
<path opacity="0.4" d="M253.188 24.8408C253.374 25.3469 253.728 25.6808 253.977 25.5884C254.226 25.4961 254.278 25.0113 254.09 24.5052C253.904 23.999 253.551 23.6652 253.301 23.7575C253.052 23.8517 253.001 24.3347 253.188 24.8408Z" fill="white" fill-opacity="0.5"/>
<path d="M253.155 24.753C253.323 25.2094 253.622 25.5202 253.82 25.4456C254.02 25.371 254.045 24.9413 253.877 24.4849C253.709 24.0285 253.41 23.7177 253.212 23.7923C253.012 23.8669 252.987 24.2966 253.155 24.753Z" fill="black"/>
<path d="M245.912 24.7948C246.181 24.8835 245.751 25.5743 245.537 25.4465C245.322 25.3186 245.567 24.6811 245.912 24.7948Z" fill="#E8E7E6"/>
<g style="mix-blend-mode:overlay" opacity="0.16">
<path d="M249.421 27.2705C252.642 26.9189 255.714 27.2953 258.342 28.2294C258.489 28.2827 258.305 30.0958 258.305 30.0958L258.245 31.053C258.245 31.053 259.847 32.9709 259.518 33.7878C259.189 34.6047 256.805 34.6686 256.805 34.6686L255.912 35.9756L254.437 37.5348L252.667 38.7673C252.667 38.7673 252.773 39.9677 252.525 40.7331C251.995 41.0013 250.889 39.712 250.889 39.712C250.889 39.712 249.731 40.1098 247.92 40.4827C247.326 40.607 246.275 40.6301 245.704 40.5751C244.577 40.401 242.722 40.0707 242.722 40.0707C242.722 40.0707 241.914 40.3584 240.959 40.5609C240.426 40.124 240.503 39.165 240.503 39.165C239.443 38.6465 237.807 37.2312 237.807 37.2312C237.807 37.2312 236.115 37.5881 235.779 37.1424C235.561 36.8529 235.704 36.0413 235.834 35.5015C237.903 31.2928 243.076 27.9631 249.421 27.2705Z" fill="white"/>
</g>
<path opacity="0.24" d="M235.966 34.9888C235.966 34.9888 235.403 34.5519 234.763 32.4316C232.743 31.7905 232.855 30.9967 234.225 29.5156C234.155 26.3742 235.368 23.9058 236.326 22.4531C236.1 23.405 235.891 25.9071 237.375 31.485C239.418 39.1673 253.22 38.4694 256.803 34.6638L255.91 35.9708C255.91 35.9708 256.201 36.8374 255.959 37.3098C255.719 37.7822 254.433 37.5318 254.433 37.5318L252.663 38.7642C252.663 38.7642 252.769 39.9647 252.521 40.73C251.99 40.9982 250.885 39.7089 250.885 39.7089C250.885 39.7089 249.727 40.1067 247.916 40.4797C247.767 40.8526 246.807 41.396 246.807 41.396C246.807 41.396 246.556 41.396 245.698 40.572C244.571 40.398 242.716 40.0677 242.716 40.0677C242.716 40.0677 241.908 40.3553 240.953 40.5578C240.421 40.1209 240.497 39.162 240.497 39.162C239.437 38.6434 237.801 37.2281 237.801 37.2281C237.801 37.2281 236.109 37.585 235.773 37.1393C235.437 36.6918 235.966 34.9888 235.966 34.9888Z" fill="white"/>
<path d="M239.236 24.5306C234.944 20.0413 233.252 20.02 233.068 21.0127C233.068 21.0127 231.807 27.2566 236.152 28.1605C238.076 27.5478 238.934 26.2674 238.934 26.2674C238.934 26.2674 238.695 24.8698 239.236 24.5306Z" fill="#DEA73C"/>
<path d="M255.781 21.7628C255.781 21.7628 257.525 18.1063 257.912 17.9039C258.299 17.7032 260.708 23.2882 258.796 25.3375C258.588 25.5613 258.282 25.6696 257.903 25.682C257.905 25.682 257.359 23.6452 255.781 21.7628Z" fill="#E2B148"/>
<path d="M233.067 21.0123C233.205 20.2665 234.195 20.0942 236.5 21.9571C235.798 21.8363 235.218 22.0459 234.862 22.5112C235.64 23.0031 237.732 24.2888 239.137 24.7949C239.059 24.9068 239.078 24.9849 238.999 25.111C237.614 24.8499 235.249 24.358 234.485 23.9087C234.485 23.9123 234.485 23.9158 234.485 23.9194C234.507 24.4699 234.616 25.0204 234.802 25.5247C235.598 25.6437 236.756 25.7414 238.077 25.6242C238.077 25.6242 236.641 26.3203 235.348 26.5565C235.812 27.1869 236.448 27.6238 237.243 27.6913C236.926 27.8653 236.565 28.0269 236.153 28.1583C231.806 27.2562 233.067 21.0123 233.067 21.0123Z" fill="url(#paint15_linear_3346_9238)"/>
<path opacity="0.24" d="M246.474 34.5877C248.078 34.158 250.232 36.3138 247.742 36.5731C245.252 36.8306 244.06 35.2359 246.474 34.5877Z" fill="white"/>
<path d="M256.289 22.4216C256.289 22.4216 257.017 21.6296 257.534 20.5428C257.224 20.1539 256.89 19.9834 256.628 20.1592L256.644 20.0225C257.143 19.0493 257.712 18.0087 257.914 17.9039C258.301 17.7032 260.71 23.2882 258.798 25.3375C258.59 25.5613 258.284 25.6696 257.905 25.682C258.167 25.2079 258.319 24.7 258.39 24.1921C257.882 24.2916 257.292 24.1957 257.292 24.1957L257.005 23.5635C257.005 23.5635 257.85 23.3717 258.407 22.9597C258.36 22.4873 258.255 22.0398 258.114 21.6438C257.698 22.3967 257.053 22.878 256.729 23.0876C256.605 23.1657 256.289 22.4216 256.289 22.4216Z" fill="url(#paint16_linear_3346_9238)"/>
<path opacity="0.12" d="M239.037 26.415C238.236 29.0912 236.42 30.1567 235.477 29.7305C234.534 29.3043 234.227 28.2619 234.227 28.2619C234.227 28.2619 234.365 27.5675 234.329 27.3367C233.367 26.463 233.086 24.8203 233.086 24.8203C233.086 24.8203 235.618 28.0275 238.892 25.8361C238.991 25.9799 239.037 26.415 239.037 26.415Z" fill="white"/>
<path opacity="0.08" d="M259.516 33.7891C258.642 34.3219 257.333 33.3984 257.333 33.3984L256.803 34.6699C256.803 34.6699 259.045 34.7836 259.516 33.7891Z" fill="white"/>
<path opacity="0.24" d="M249.834 34.5214C249.71 34.8925 248.074 34.0934 248.688 33.6388C249.302 33.1842 250.156 33.5518 249.834 34.5214Z" fill="white"/>
<path opacity="0.24" d="M250.422 20.5749C251.568 20.6388 252.033 22.2708 250.871 22.2673C249.707 22.2619 248.515 20.4683 250.422 20.5749Z" fill="white"/>
<path opacity="0.24" d="M247.962 19.8131C248.478 19.4704 249.026 20.6229 248.579 20.8768C248.135 21.1308 247.445 20.1558 247.962 19.8131Z" fill="white"/>
<path opacity="0.24" d="M242.046 19.4924C242.856 19.3522 243.792 21.0854 242.564 21.2274C241.339 21.3677 240.985 19.6754 242.046 19.4924Z" fill="white"/>
<path opacity="0.24" d="M240.005 19.0078C240.927 20.0129 241.029 21.3253 240.292 22.0534C239.616 22.7193 237.793 22.4796 236.626 21.9752C237.338 21.169 238.828 19.5867 240.005 19.0078Z" fill="white"/>
<path d="M253.212 23.9648C253.023 24.0766 253.46 24.5419 253.601 24.4087C253.743 24.2755 253.453 23.8227 253.212 23.9648Z" fill="#E8E7E6"/>
<path opacity="0.12" d="M250.611 16.0469C249.888 16.8105 249.959 17.9825 249.959 17.9825C249.959 17.9825 248.765 17.5776 248.326 17.4782C249.074 16.2813 250.611 16.0469 250.611 16.0469Z" fill="white"/>
<path opacity="0.24" d="M242.548 34.6959C242.911 34.8184 242.619 35.5998 242.372 35.5643C242.124 35.5305 242.23 34.5894 242.548 34.6959Z" fill="white"/>
<path opacity="0.08" d="M255.197 31.4444C254.416 31.4444 254.003 31.1229 253.742 31.5491C253.742 31.5491 254.221 32.6572 254.981 32.3021C255.171 32.0535 255.197 31.4444 255.197 31.4444Z" fill="white"/>
<path opacity="0.24" d="M243.517 35.196C243.977 35.2617 243.505 36.1674 243.199 36.2384C242.893 36.3095 242.079 35.8122 242.079 35.8122C242.079 35.8122 243.353 35.1712 243.517 35.196Z" fill="white"/>
<path opacity="0.4" d="M248.878 26.0468C249.283 25.3578 249.375 24.4628 248.17 24.1875C248.17 24.1875 249.035 24.4521 248.878 26.0468Z" fill="white" fill-opacity="0.5"/>
<path d="M238.439 19.8402C238.296 19.8313 238.158 19.8225 238.024 19.8154C238.167 19.8066 238.316 19.8207 238.439 19.8402Z" fill="url(#paint17_linear_3346_9238)"/>
<path d="M255.913 36.0533C255.936 36.0533 255.959 36.0427 255.975 36.0231C256.295 35.6165 256.59 35.1849 256.852 34.7428C257.331 34.7072 259.218 34.5332 259.482 33.9365C259.765 33.2972 258.981 31.9618 258.263 30.9425C258.382 30.2747 258.442 29.6035 258.442 28.9482C258.442 24.6045 255.969 20.6408 251.988 18.5986C251.693 17.4532 251.166 16.0894 250.628 15.9686C250.138 15.8585 249.355 16.3362 248.301 17.3928C246.345 17.0785 244.407 17.2223 242.569 17.7924C241.773 17.2401 241.089 16.7766 240.716 17.2614C240.532 17.5011 240.289 18.0605 239.994 18.9236C238.625 19.7245 237.451 20.758 236.503 21.9958C236.476 22.0313 236.484 22.081 236.517 22.1077C236.552 22.1343 236.6 22.1272 236.627 22.0935C237.568 20.8646 238.737 19.8399 240.098 19.0461C240.114 19.0372 240.127 19.0213 240.134 19.0035C240.422 18.1511 240.666 17.5828 240.839 17.3591C241.108 17.011 241.649 17.3484 242.511 17.9451C242.53 17.9593 242.555 17.9629 242.58 17.9558C244.417 17.3786 246.359 17.233 248.317 17.5544C248.342 17.5598 248.366 17.5509 248.384 17.5331C249.399 16.5138 250.161 16.0237 250.595 16.1231C251.014 16.2172 251.541 17.4763 251.845 18.6714C251.85 18.6927 251.866 18.7123 251.886 18.7229C255.833 20.7332 258.284 24.6507 258.284 28.9482C258.284 29.6053 258.222 30.2783 258.102 30.9478C258.099 30.9691 258.104 30.9904 258.116 31.0082C259.103 32.4058 259.538 33.4251 259.338 33.8744C259.19 34.2082 258.169 34.4959 256.801 34.59C256.774 34.5918 256.751 34.606 256.739 34.6291C256.475 35.0784 256.176 35.5152 255.853 35.929C255.826 35.9628 255.831 36.0125 255.865 36.0409C255.877 36.048 255.895 36.0533 255.913 36.0533Z" fill="black"/>
<path d="M236.708 36.1103C236.726 36.1103 236.744 36.105 236.758 36.0925C236.791 36.0659 236.797 36.0162 236.77 35.9807C235.909 34.9009 235.26 33.6987 234.839 32.4059C234.832 32.3828 234.812 32.3633 234.789 32.3562C233.88 32.0454 233.346 31.7044 233.242 31.3724C233.152 31.0793 233.551 30.3885 234.285 29.5681C234.3 29.5521 234.307 29.5326 234.305 29.5113C234.294 29.3106 234.291 29.1259 234.291 28.9448C234.291 28.4085 234.33 27.8686 234.406 27.3412C234.413 27.2986 234.383 27.2577 234.338 27.2506C234.294 27.2453 234.255 27.2737 234.25 27.3181C234.172 27.8544 234.133 28.4014 234.133 28.9448C234.133 29.1188 234.139 29.2964 234.147 29.4864C233.679 30.0121 232.943 30.9391 233.093 31.4185C233.212 31.8021 233.753 32.1626 234.703 32.4929C235.129 33.7893 235.783 34.9968 236.648 36.0801C236.662 36.1014 236.685 36.1103 236.708 36.1103Z" fill="black"/>
<path d="M252.273 40.8123C252.307 40.8123 252.337 40.807 252.363 40.7964C252.657 40.6738 252.797 40.0363 252.79 38.85C253.658 38.3191 254.456 37.6815 255.161 36.9552C255.191 36.9233 255.191 36.8735 255.159 36.8433C255.128 36.8132 255.078 36.8132 255.048 36.8451C254.342 37.5714 253.543 38.209 252.669 38.7382C252.646 38.7524 252.63 38.779 252.63 38.8074C252.645 40.3417 252.404 40.6081 252.301 40.6507C252.171 40.7058 251.702 40.4181 250.943 39.658C250.92 39.635 250.887 39.6279 250.858 39.6403C249.405 40.2192 247.866 40.5122 246.287 40.5122C245.082 40.5122 243.89 40.3382 242.741 39.9972C242.723 39.9919 242.705 39.9937 242.689 39.999C242.223 40.1855 241.252 40.5726 240.977 40.4874C240.944 40.4767 240.769 40.3648 240.576 39.1555C240.572 39.1306 240.557 39.1093 240.535 39.0987C239.373 38.486 238.33 37.6957 237.433 36.751C237.403 36.719 237.354 36.719 237.322 36.7474C237.29 36.7776 237.29 36.8274 237.32 36.8593C238.219 37.8058 239.266 38.5996 240.429 39.2194C240.647 40.5495 240.855 40.6152 240.933 40.6383C241.202 40.7218 241.842 40.5069 242.725 40.1571C243.88 40.498 245.079 40.6703 246.288 40.6703C247.871 40.6703 249.412 40.379 250.869 39.8072C251.541 40.4749 252.011 40.8123 252.273 40.8123Z" fill="black"/>
<path d="M236.413 37.387C236.636 37.387 236.905 37.3675 237.212 37.3444C237.396 37.3302 237.596 37.316 237.806 37.3036C237.851 37.3018 237.883 37.2627 237.881 37.2201C237.879 37.1757 237.847 37.1437 237.798 37.1455C237.585 37.1579 237.386 37.1721 237.202 37.1864C236.521 37.2379 235.983 37.2769 235.836 37.0869C235.704 36.9147 235.877 35.7639 236.043 35.0021C236.052 34.9595 236.026 34.9168 235.983 34.908C235.939 34.8991 235.898 34.9257 235.889 34.9683C235.82 35.2862 235.488 36.888 235.713 37.1828C235.831 37.3391 236.07 37.387 236.413 37.387Z" fill="black"/>
<path d="M258.303 30.1749C258.319 30.1749 258.337 30.1696 258.351 30.1589C258.466 30.0719 258.579 29.9938 258.685 29.9192C259.041 29.6724 259.32 29.477 259.37 29.2071C259.432 28.8626 258.556 28.1416 258.38 28.0013C258.346 27.9747 258.296 27.98 258.268 28.0137C258.242 28.0475 258.247 28.0972 258.28 28.1256C258.689 28.4506 259.248 28.994 259.214 29.1787C259.177 29.3847 258.921 29.564 258.595 29.7896C258.487 29.8641 258.372 29.9441 258.256 30.0328C258.22 30.0595 258.213 30.1092 258.24 30.143C258.256 30.1625 258.28 30.1749 258.303 30.1749Z" fill="black"/>
<path d="M254.907 37.6275C255.202 37.6275 255.56 37.6044 255.763 37.5085C256.069 37.3646 256.055 37.1764 256.023 36.7253C256.009 36.5318 255.993 36.292 255.989 35.9688C255.989 35.9244 255.958 35.8889 255.91 35.8907C255.866 35.8907 255.832 35.9262 255.832 35.9706C255.836 36.2974 255.853 36.5406 255.866 36.736C255.899 37.2066 255.896 37.2705 255.696 37.3646C255.356 37.5262 254.451 37.4516 254.442 37.4499C254.396 37.4445 254.361 37.4783 254.357 37.5227C254.354 37.5671 254.385 37.6044 254.43 37.6079C254.446 37.6097 254.652 37.6275 254.907 37.6275Z" fill="black"/>
<path d="M237.454 21.0874C237.497 21.0874 237.532 21.0536 237.534 21.011C237.545 20.5884 237.599 20.0911 237.661 20.0272C237.78 19.9171 238.119 19.8976 238.694 19.9651C238.737 19.9686 238.777 19.9384 238.783 19.8958C238.788 19.8532 238.756 19.8123 238.714 19.807C238.063 19.7289 237.718 19.7608 237.555 19.9082C237.417 20.0361 237.385 20.7162 237.377 21.0039C237.375 21.0483 237.41 21.0838 237.453 21.0856C237.453 21.0874 237.453 21.0874 237.454 21.0874Z" fill="black"/>
<path d="M239.293 26.9103C239.307 26.9103 239.323 26.9068 239.335 26.8979C239.374 26.8748 239.387 26.8233 239.362 26.7842C239.008 26.2089 238.92 25.5358 239.121 24.9871C239.254 24.6284 239.502 24.3656 239.802 24.2697C239.845 24.2555 239.869 24.2093 239.855 24.1667C239.841 24.124 239.795 24.0992 239.753 24.1134C239.404 24.2253 239.118 24.5236 238.968 24.932C238.748 25.5287 238.844 26.255 239.222 26.873C239.24 26.8961 239.266 26.9103 239.293 26.9103Z" fill="black"/>
<path d="M236.084 28.2357C236.97 28.2357 237.975 27.5591 239.075 26.2183C239.103 26.1828 239.1 26.1313 239.064 26.1029C239.029 26.0745 238.978 26.078 238.949 26.1135C237.727 27.6017 236.645 28.2463 235.732 28.0297C234.712 27.7864 233.948 27.0245 233.46 25.769C232.683 23.7659 232.917 21.3294 233.219 20.8784C233.299 20.7612 233.433 20.6954 233.623 20.683C234.592 20.6209 236.809 21.9616 239.174 24.6467C239.204 24.6804 239.255 24.684 239.291 24.6538C239.324 24.6236 239.328 24.5721 239.298 24.5366C236.785 21.6846 234.59 20.4557 233.612 20.5179C233.37 20.5338 233.191 20.6244 233.083 20.7842C232.717 21.3276 232.556 23.8902 233.306 25.8258C233.806 27.1169 234.632 27.9338 235.694 28.1877C235.821 28.2214 235.952 28.2357 236.084 28.2357Z" fill="#DEA73C"/>
<path d="M257.88 25.7473C257.884 25.7473 257.887 25.7473 257.889 25.7473C258.862 25.6337 259.417 25.0583 259.541 24.0336C259.893 21.1301 258.446 18.0349 258.009 17.8218C257.953 17.7933 257.896 17.8004 257.857 17.8395C257.654 18.0437 256.867 19.523 255.937 21.29L255.712 21.7162C255.691 21.7552 255.707 21.8032 255.744 21.8227C255.783 21.8423 255.831 21.828 255.85 21.7908L256.075 21.3646C256.733 20.1161 257.718 18.2462 257.953 17.9692C258.292 18.1503 259.732 21.1497 259.385 24.0141C259.272 24.9553 258.763 25.4845 257.872 25.5893C257.829 25.5946 257.797 25.6337 257.803 25.6763C257.808 25.7171 257.841 25.7473 257.88 25.7473Z" fill="black"/>
<path d="M248.879 25.1791C248.9 25.1791 248.922 25.1702 248.938 25.1525C249.486 24.5451 250.296 24.4315 251 24.8666C251.037 24.8896 251.086 24.8772 251.108 24.8399C251.13 24.8026 251.118 24.7547 251.081 24.7316C250.448 24.3427 249.503 24.2876 248.819 25.0477C248.789 25.0797 248.792 25.1294 248.824 25.1596C248.842 25.172 248.86 25.1791 248.879 25.1791Z" fill="black"/>
<path d="M251.298 25.752C251.309 25.752 251.321 25.7502 251.332 25.7449C251.371 25.7254 251.388 25.6792 251.369 25.6401C251.364 25.6312 250.925 24.6883 251.365 23.9637C251.388 23.9264 251.376 23.8785 251.339 23.8554C251.302 23.8323 251.254 23.8447 251.231 23.882C250.745 24.6794 251.208 25.6668 251.227 25.7094C251.24 25.7342 251.268 25.752 251.298 25.752Z" fill="black"/>
<path d="M248.879 26.1242C248.915 26.1242 248.946 26.1011 248.955 26.0656C248.959 26.0531 249.282 24.7692 248.212 24.121C248.175 24.0979 248.128 24.1104 248.105 24.1477C248.082 24.185 248.094 24.2329 248.131 24.256C249.098 24.842 248.815 25.9768 248.801 26.0247C248.791 26.0673 248.815 26.11 248.858 26.1206C248.865 26.1224 248.872 26.1242 248.879 26.1242Z" fill="black"/>
<path d="M242.42 35.9573C242.673 35.9573 243.046 35.8703 243.623 35.6536C243.663 35.6376 243.684 35.5932 243.668 35.5524C243.653 35.5115 243.608 35.4902 243.568 35.5062C242.475 35.9182 242.208 35.8259 242.082 35.6643C241.995 35.5524 242.098 34.874 242.243 34.3093C242.254 34.2667 242.229 34.2241 242.186 34.2134C242.144 34.2027 242.102 34.2276 242.091 34.2702C242.038 34.478 241.778 35.5311 241.958 35.7619C242.049 35.8791 242.179 35.9573 242.42 35.9573Z" fill="black"/>
<path d="M254.753 31.945C254.771 31.945 254.787 31.945 254.804 31.9433C254.91 31.9344 254.997 31.8918 255.062 31.8136C255.229 31.6147 255.229 31.2382 255.176 30.6966C255.172 30.6522 255.133 30.6203 255.089 30.6256C255.045 30.6291 255.015 30.6682 255.018 30.7126C255.059 31.1352 255.078 31.549 254.94 31.7124C254.903 31.7586 254.856 31.7817 254.79 31.787C254.445 31.8118 253.782 31.4833 253.775 31.4798C253.736 31.4602 253.688 31.4762 253.669 31.5153C253.649 31.5543 253.665 31.6023 253.704 31.6218C253.734 31.6325 254.359 31.945 254.753 31.945Z" fill="black"/>
<path d="M246.815 41.4731C247.11 41.4731 247.356 41.2067 247.966 40.5443L247.978 40.5319C248.009 40.4999 248.007 40.4502 247.975 40.42C247.943 40.3898 247.894 40.3916 247.864 40.4236L247.851 40.436C247.268 41.07 247.025 41.331 246.788 41.3133C246.606 41.2991 246.061 40.8142 245.761 40.5124C245.731 40.4822 245.679 40.4822 245.649 40.5124C245.619 40.5425 245.619 40.594 245.649 40.6242C245.785 40.761 246.484 41.4482 246.776 41.4713C246.788 41.4731 246.801 41.4731 246.815 41.4731Z" fill="black"/>
<path d="M-6.00703 35.81C-4.36276 34.5388 -2.71327 33.9528 -1.05266 34.0353C0.260323 34.0806 2.08977 35.7033 4.41882 38.8975C5.61117 40.5234 7.72871 43.8329 10.7883 48.8319C13.4569 53.1899 15.4006 56.0774 16.6306 57.4888C18.488 59.6244 19.7678 59.9523 20.47 58.4723C21.196 56.9248 21.3852 55.4728 21.0232 54.1302C20.7532 53.0383 20.0521 51.8229 18.9086 50.4895C17.379 48.8776 16.1749 47.6083 15.2991 46.673C13.6722 44.9603 12.3607 43.3494 11.3844 41.8376C10.2069 40.0081 9.35308 37.9605 8.82 35.7033C8.29984 33.517 7.85141 30.4544 8.08018 28.5132C8.31936 26.4618 10.2542 24.0591 11.2152 22.8412C12.2661 21.5032 12.614 22.5466 14.3148 22.4343C17.472 22.2566 19.0601 24.3663 20.4112 27.1303C21.4175 29.2032 22.4476 30.7598 22.1953 33.4141C22.0844 34.4286 22.361 36.1208 23.0143 38.4679C23.686 40.8974 24.5429 43.2593 25.5905 45.565C26.7717 48.1647 27.9647 50.085 29.1718 51.346C30.5761 52.8283 31.8604 53.2242 33.0247 52.5336C34.1547 51.8594 34.7432 50.5672 34.8131 48.6459C34.8345 47.2391 34.5318 45.0822 33.9022 42.1834C32.2951 37.6312 32.9651 34.9816 32.8586 34.422C32.3044 31.2555 30.8754 28.7211 31.0609 26.4989C31.2612 24.0731 31.6512 21.2213 32.8837 19.8524C33.9634 18.6479 36.6866 17.379 38.2682 17.2817C39.7509 17.1685 40.7046 18.3677 41.9801 19.273C43.283 20.2355 44.1073 22.0704 44.5046 23.6627C44.8562 25.1156 45.2181 27.3925 44.9137 30.4365C44.7359 32.0445 43.5906 35.0421 42.9578 39.0714C42.4107 42.5615 42.0625 44.1952 42.0043 45.5986C41.9002 47.6976 42.6286 49.4178 43.3144 49.5457C47.1105 51.7426 51.0352 43.0511 53.1321 32.0392C53.4289 28.1648 56.1797 24.1347 58.7848 22.6422C61.4499 21.114 62.1624 22.5042 64.6331 24.7043C65.7761 25.7433 67.3377 27.5836 66.3964 29.9569C65.6507 31.8297 65.1016 34.2971 62.8655 37.3815C61.5894 39.1432 59.2387 40.3696 56.537 43.8593C54.0272 46.2051 53.0185 49.4966 52.3833 50.8674C51.6127 52.5415 50.8012 53.3624 51.0836 54.5535C51.538 56.4698 52.6866 57.264 53.7204 57.2393C54.8646 57.2251 56.152 56.4545 57.594 54.9222C59.2923 53.1479 60.951 50.5434 62.5757 47.1201C64.2386 43.6153 65.9602 40.3542 67.9593 38.3728C69.7369 36.5886 71.6655 36.0395 73.5007 35.6804C75.1771 35.3412 76.6701 35.0531 77.9968 35.948C79.2812 36.828 80.448 38.6257 80.9844 40.362C81.4472 41.93 80.3629 43.8476 79.0992 45.7086C78.1552 47.0938 76.4728 49.2768 74.2194 51.2255C71.6031 53.369 70.0581 54.0661 68.9278 55.0914C67.018 56.8195 65.4756 58.1969 65.0564 59.359C64.595 60.6676 65.1713 62.131 65.6608 63.1389C66.1339 64.1125 66.9226 64.6754 68.0271 64.8275C69.1991 65.0034 70.3858 64.653 71.5902 63.7678C73.0007 62.7558 73.792 59.8993 74.854 57.7489C76.9854 53.3462 79.6949 51.5758 82.0275 50.291C84.2081 49.114 85.8619 50.9196 87.0672 52.7779C87.6689 53.683 86.6628 57.4362 86.1382 59.7857C85.5604 62.2587 85.5542 61.4762 84.1387 63.7678C82.4879 66.4036 79.6747 69.0692 77.4837 70.3565C74.8871 71.8519 71.3744 73.7092 67.9138 71.395C64.1588 70.4412 63.32 69.2057 62.0607 69.3312C59.5247 69.6046 58.0463 70.5951 56.9463 73.6339C55.4321 77.1233 55.516 84.5368 57.4641 88.9169C57.9568 90.5619 58.6874 92.5281 59.656 94.8155C60.5759 96.9718 60.8647 98.9795 61.0029 99.5029L41.0945 92.4834C42.983 89.5233 44.1118 86.4567 44.4697 83.2607C44.8822 79.6947 44.3055 76.1881 42.7456 72.7241C41.5181 70.0132 39.9778 70.2579 37.6782 69.1339C36.5999 68.6113 34.3885 67.5753 32.9464 67.4655C31.9478 67.4171 31.2434 66.0392 29.3634 66.2022C24.6877 66.5944 21.0805 66.5945 18.5532 66.197C13.7356 65.4571 8.853 63.3938 3.90241 60.0157C-1.35017 56.4171 -5.07476 52.8733 -7.26586 49.3955C-9.08384 46.4479 -9.76705 43.7011 -9.30955 41.1382C-8.92144 38.9874 -7.82058 37.2114 -6.00453 35.8299L-6.00703 35.81Z" fill="#DDA8D6" stroke="black"/>
<g style="mix-blend-mode:multiply">
<path d="M-3.34716 38.5965C-1.77169 37.3785 -0.19122 36.817 1.3999 36.896C2.65795 36.9394 4.41083 38.4943 6.64241 41.5548C7.78487 43.1127 9.8138 46.2836 12.7454 51.0735C15.3023 55.2492 17.1646 58.0158 18.3432 59.3681C20.1229 61.4144 21.3491 61.7285 22.0219 60.3105C22.7175 58.8277 22.8988 57.4365 22.552 56.1501C22.2933 55.1039 21.6216 53.9394 20.5258 52.6617C19.0603 51.1173 17.9066 49.9011 17.0674 49.0049C15.5086 47.3639 14.252 45.8204 13.3165 44.3719C12.1883 42.6189 11.3702 40.657 10.8594 38.4942C10.361 36.3995 9.93136 33.465 10.1506 31.605C10.3797 29.6395 10.3712 29.7145 13.1544 26.1704C14.1613 24.8883 14.6549 24.7423 16.2845 24.6347C19.3096 24.4645 20.671 27.6317 21.9656 30.28C22.9298 32.2661 23.9168 33.7576 23.675 36.3008C23.5687 37.2729 23.8338 38.8943 24.4598 41.1432C25.1034 43.471 25.9244 45.734 26.9281 47.9433C28.06 50.4342 29.203 52.2742 30.3596 53.4823C31.7052 54.9026 32.9357 55.2819 34.0513 54.6203C35.134 53.9743 35.6979 52.7361 35.7648 50.8953C35.7853 49.5474 35.4953 47.4807 34.892 44.7032C33.3522 40.3415 33.9941 37.8027 33.8921 37.2665C33.3611 34.2326 31.9919 31.8042 32.1697 29.675C32.3616 27.3507 32.7352 24.6182 33.9162 23.3066C34.9507 22.1525 37.5599 20.9367 39.0753 20.8435C40.496 20.7351 41.4098 21.884 42.6319 22.7515C43.8803 23.6737 44.6701 25.4318 45.0508 26.9575C45.3877 28.3496 45.7344 30.5312 45.4427 33.4479C45.2724 34.9885 44.175 37.8607 43.5687 41.7215C43.0445 45.0655 42.7108 46.6308 42.6551 47.9754C42.5554 49.9866 43.2533 51.6348 43.9104 51.7574C47.5476 53.8624 51.3081 45.5346 53.3173 34.9835C53.6017 31.2712 56.2373 27.4097 58.7334 25.9797C61.287 24.5154 61.9697 25.8475 64.337 27.9555C65.4322 28.951 66.9284 30.7143 66.0265 32.9884C65.312 34.7828 64.7859 37.1469 62.6434 40.1022C61.4207 41.7902 59.1684 42.9653 56.5797 46.3089C54.1749 48.5566 53.2084 51.7104 52.5998 53.0238C51.8614 54.6279 51.0839 55.4144 51.3545 56.5557C51.7899 58.3918 52.8904 59.1527 53.881 59.1291C54.9772 59.1154 56.2108 58.3771 57.5925 56.9089C59.2197 55.2089 60.809 52.7134 62.3657 49.4333C63.959 46.0752 65.6085 42.9505 67.524 41.0521C69.2273 39.3425 71.0751 38.8164 72.8336 38.4723C74.4398 38.1473 75.8703 37.8712 77.1414 38.7287C78.3722 39.5719 79.4901 41.2943 80.004 42.958C80.4475 44.4604 79.4086 46.2977 78.1978 48.0808C77.2933 49.4081 75.6812 51.4998 73.5222 53.3669C71.0154 55.4207 69.535 56.0887 68.4519 57.071C66.6221 58.7268 65.1443 60.0466 64.7426 61.1601C64.3005 62.4139 64.8527 63.8161 65.3217 64.7818C65.775 65.7147 66.5307 66.254 67.589 66.3997C68.7119 66.5683 69.849 66.2325 71.003 65.3843C72.3545 64.4148 73.1126 61.6778 74.1302 59.6173C76.1724 55.3989 78.7686 53.7026 81.0035 52.4715C83.0929 51.3437 84.6774 53.0738 85.8323 54.8544C86.4088 55.7215 85.4448 59.3178 84.9422 61.5689C84.3886 63.9385 84.3826 63.1887 83.0263 65.3844C81.4446 67.9099 78.7492 70.4639 76.6499 71.6973C74.1619 73.1302 70.7962 74.9098 67.4804 72.6924C63.8825 71.7785 63.0788 70.5948 61.8722 70.715C59.4424 70.977 58.0258 71.926 56.9719 74.8376C55.521 78.181 55.6014 85.2843 57.468 89.4811C57.9401 91.0573 58.6401 92.9412 59.5682 95.1329C60.4496 97.199 60.7263 99.1227 60.8588 99.6241L41.7834 92.8984C43.5929 90.0622 44.6744 87.1238 45.0174 84.0616C45.4126 80.6448 44.86 77.285 43.3654 73.9659C42.1893 71.3684 40.7134 71.6029 38.51 70.5259C37.4769 70.0252 35.358 69.0326 33.9763 68.9274C33.0194 68.881 32.3445 67.5608 30.5432 67.7169C26.0631 68.0927 22.6069 68.0928 20.1854 67.7119C15.5693 67.003 10.891 65.026 6.14762 61.7892C1.11483 58.3413 -2.4539 54.9457 -4.5533 51.6135C-6.29521 48.7893 -6.94983 46.1574 -6.51148 43.7017C-6.1396 41.641 -5.08482 39.9392 -3.34477 38.6156L-3.34716 38.5965Z" fill="#DDA8D6"/>
</g>
<defs>
<linearGradient id="paint0_linear_3346_9238" x1="114.897" y1="19.3266" x2="99.27" y2="3.76354" gradientUnits="userSpaceOnUse">
<stop stop-color="#99C8FF"/>
<stop offset="0.9944" stop-color="#3CC1DE"/>
</linearGradient>
<linearGradient id="paint1_linear_3346_9238" x1="114.371" y1="21.2344" x2="104.359" y2="11.2632" gradientUnits="userSpaceOnUse">
<stop stop-color="#8AE5F9"/>
<stop offset="0.9944" stop-color="#3C69DE"/>
</linearGradient>
<linearGradient id="paint2_linear_3346_9238" x1="99.2029" y1="9.5148" x2="94.2443" y2="4.57654" gradientUnits="userSpaceOnUse">
<stop stop-color="#2375D6"/>
<stop offset="0.9944" stop-color="#2C29C1"/>
</linearGradient>
<linearGradient id="paint3_linear_3346_9238" x1="121.418" y1="6.4863" x2="117.788" y2="2.87116" gradientUnits="userSpaceOnUse">
<stop stop-color="#2355D6"/>
<stop offset="0.9944" stop-color="#3E29C1"/>
</linearGradient>
<linearGradient id="paint4_linear_3346_9238" x1="99.0053" y1="9.4107" x2="94.1938" y2="4.61892" gradientUnits="userSpaceOnUse">
<stop stop-color="#54CCE6"/>
<stop offset="0.9944" stop-color="#3C42DE"/>
</linearGradient>
<linearGradient id="paint5_linear_3346_9238" x1="121.252" y1="4.72778" x2="118.014" y2="4.72778" gradientUnits="userSpaceOnUse">
<stop stop-color="#7154E6"/>
<stop offset="0.9944" stop-color="#3C4CDE"/>
</linearGradient>
<linearGradient id="paint6_linear_3346_9238" x1="99.9706" y1="2.8557" x2="99.9529" y2="2.74669" gradientUnits="userSpaceOnUse">
<stop offset="0.00558659" stop-color="#FFF3FF"/>
<stop offset="1" stop-color="white"/>
</linearGradient>
<linearGradient id="paint7_linear_3346_9238" x1="176.855" y1="76.7528" x2="160.546" y2="60.5114" gradientUnits="userSpaceOnUse">
<stop stop-color="#FFD599"/>
<stop offset="0.9944" stop-color="#DE603C"/>
</linearGradient>
<linearGradient id="paint8_linear_3346_9238" x1="176.306" y1="78.7439" x2="165.857" y2="68.3381" gradientUnits="userSpaceOnUse">
<stop stop-color="#F9C18A"/>
<stop offset="0.9944" stop-color="#DE603C"/>
</linearGradient>
<linearGradient id="paint9_linear_3346_9238" x1="160.478" y1="66.5068" x2="155.303" y2="61.3533" gradientUnits="userSpaceOnUse">
<stop stop-color="#D64723"/>
<stop offset="0.9944" stop-color="#C14629"/>
</linearGradient>
<linearGradient id="paint10_linear_3346_9238" x1="183.66" y1="63.3494" x2="179.872" y2="59.5767" gradientUnits="userSpaceOnUse">
<stop stop-color="#D64723"/>
<stop offset="0.9944" stop-color="#C14629"/>
</linearGradient>
<linearGradient id="paint11_linear_3346_9238" x1="160.272" y1="66.3981" x2="155.251" y2="61.3975" gradientUnits="userSpaceOnUse">
<stop stop-color="#E67E54"/>
<stop offset="0.9944" stop-color="#DE603C"/>
</linearGradient>
<linearGradient id="paint12_linear_3346_9238" x1="183.486" y1="61.5142" x2="180.107" y2="61.5142" gradientUnits="userSpaceOnUse">
<stop stop-color="#E67E54"/>
<stop offset="0.9944" stop-color="#DE603C"/>
</linearGradient>
<linearGradient id="paint13_linear_3346_9238" x1="161.277" y1="59.5552" x2="161.258" y2="59.4414" gradientUnits="userSpaceOnUse">
<stop offset="0.00558659" stop-color="#FFF3FF"/>
<stop offset="1" stop-color="white"/>
</linearGradient>
<linearGradient id="paint14_linear_3346_9238" x1="253.173" y1="36.3889" x2="237.545" y2="20.8259" gradientUnits="userSpaceOnUse">
<stop stop-color="#FFFB99"/>
<stop offset="1" stop-color="#DEA73C"/>
</linearGradient>
<linearGradient id="paint15_linear_3346_9238" x1="237.622" y1="26.6438" x2="233.037" y2="23.0693" gradientUnits="userSpaceOnUse">
<stop stop-color="#FFFB99"/>
<stop offset="1" stop-color="#DEA73C"/>
</linearGradient>
<linearGradient id="paint16_linear_3346_9238" x1="258.741" y1="24.146" x2="255.44" y2="22.8292" gradientUnits="userSpaceOnUse">
<stop stop-color="#FFFB99"/>
<stop offset="1" stop-color="#DEA73C"/>
</linearGradient>
<linearGradient id="paint17_linear_3346_9238" x1="238.246" y1="19.918" x2="238.228" y2="19.809" gradientUnits="userSpaceOnUse">
<stop offset="0.00558659" stop-color="#FFF3FF"/>
<stop offset="1" stop-color="white"/>
</linearGradient>
</defs>
</svg>
